<svg width="20" height="20" viewBox="0 0 20 20" fill="none" xmlns="http://www.w3.org/2000/svg">
<g clip-path="url(#clip0_309_88)">
<path d="M10 19C5.02353 19 0.999998 14.9765 0.999998 10C0.999999 5.02353 5.02353 1 10 1C14.9765 1 19 5.02353 19 10C19 14.9765 14.9765 19 10 19ZM10 2.05882C5.60588 2.05882 2.05882 5.60588 2.05882 10C2.05882 14.3941 5.60588 17.9412 10 17.9412C14.3941 17.9412 17.9412 14.3941 17.9412 10C17.9412 5.60588 14.3941 2.05883 10 2.05882Z" fill="white" fill-opacity="0.5"/>
<path d="M0.749998 10C0.749998 15.1145 4.88546 19.25 10 19.25C15.1145 19.25 19.25 15.1145 19.25 10C19.25 4.88546 15.1145 0.750002 10 0.750002C4.88546 0.750001 0.749999 4.88546 0.749998 10ZM2.30882 10C2.30882 5.74395 5.74395 2.30882 10 2.30882C14.256 2.30883 17.6912 5.74396 17.6912 10C17.6912 14.256 14.256 17.6912 10 17.6912C5.74395 17.6912 2.30882 14.256 2.30882 10Z" stroke="white" stroke-opacity="0.5" stroke-width="0.5"/>
<path d="M12.8284 6.82843L12.9294 12.3843L12.8284 6.82843ZM12.8284 6.82843L7.27259 6.72741L12.8284 6.82843ZM12.8284 6.82843L6.46446 13.1924L12.8284 6.82843Z" fill="white" fill-opacity="0.5"/>
<path d="M12.8284 6.82843L12.9294 12.3843M12.8284 6.82843L7.27259 6.72741M12.8284 6.82843L6.46446 13.1924" stroke="white" stroke-opacity="0.5" stroke-width="2" stroke-linecap="round" stroke-linejoin="round"/>
</g>
<defs>
<clipPath id="clip0_309_88">
<rect width="20" height="20" fill="white"/>
</clipPath>
</defs>
</svg>
