<svg width="8" height="14" viewBox="0 0 8 14" fill="none" xmlns="http://www.w3.org/2000/svg">
<path d="M0.375345 7.94422C-0.125115 7.4228 -0.125115 6.5774 0.375345 6.05598C0.875806 5.53456 1.68721 5.53456 2.18767 6.05598L7.62465 11.7207C8.12512 12.2421 8.12512 13.0875 7.62465 13.6089C7.12419 14.1304 6.31279 14.1304 5.81233 13.6089L0.375345 7.94422Z" fill="white"/>
<path d="M2.18767 7.94402C1.68721 8.46544 0.875806 8.46564 0.375345 7.94422C-0.125115 7.4228 -0.125115 6.5774 0.375345 6.05598L5.81232 0.391067C6.31278 -0.130356 7.12419 -0.130356 7.62465 0.391067C8.12511 0.912489 8.12511 1.75788 7.62465 2.2793L2.18767 7.94402Z" fill="white"/>
</svg>
