<svg width="18" height="18" viewBox="0 0 18 18" fill="none" xmlns="http://www.w3.org/2000/svg">
<rect width="18" height="18" rx="5" fill="#3C9CD7"/>
<path d="M3.68806 8.81376C3.3051 8.42034 3.3051 7.79349 3.68806 7.40007C4.0859 6.99137 4.74252 6.99137 5.14036 7.40007L8.32233 10.6689C8.7053 11.0623 8.7053 11.6892 8.32233 12.0826C7.92449 12.4913 7.26787 12.4913 6.87004 12.0826L3.68806 8.81376Z" fill="white"/>
<path d="M12.86 4.75559C13.2568 4.34245 13.917 4.34027 14.3166 4.75077C14.6977 5.14225 14.6997 5.76538 14.3213 6.15937L8.4758 12.2444C8.07893 12.6575 7.41873 12.6597 7.01914 12.2492C6.63806 11.8577 6.636 11.2346 7.01448 10.8406L12.86 4.75559Z" fill="white"/>
</svg>
