<svg width="36" height="36" viewBox="0 0 36 36" fill="none" xmlns="http://www.w3.org/2000/svg">
<circle cx="18" cy="18" r="18" fill="#F3F7FA"/>
<path d="M18 19V11" stroke="#333C45" stroke-width="1.5" stroke-miterlimit="10" stroke-linecap="round"/>
<path d="M12 19V22.3331C11.9999 22.552 12.0387 22.7688 12.114 22.9711C12.1894 23.1734 12.2999 23.3572 12.4392 23.512C12.5786 23.6668 12.744 23.7896 12.9261 23.8733C13.1081 23.957 13.3033 24.0001 13.5003 24H22.5003C22.6973 24 22.8924 23.9569 23.0744 23.8731C23.2564 23.7893 23.4217 23.6665 23.561 23.5117C23.7003 23.3569 23.8107 23.1732 23.886 22.9709C23.9614 22.7687 24.0001 22.552 24 22.3331V19" stroke="#333C45" stroke-width="1.5" stroke-linecap="round" stroke-linejoin="round"/>
<path d="M21 16L18.4281 18.8082C18.3143 18.9311 18.1607 19 18.0006 19C17.8406 19 17.687 18.9311 17.5732 18.8082L15 16" stroke="#333C45" stroke-width="1.5" stroke-linecap="round" stroke-linejoin="round"/>
</svg>
