<svg width="20" height="20" viewBox="0 0 20 20" fill="none" xmlns="http://www.w3.org/2000/svg">
<path d="M19 9.49952H6.97892M2.73578 9.49952H1M2.73578 9.49952C2.73578 8.94026 2.95925 8.40391 3.35703 8.00846C3.75481 7.613 4.29432 7.39084 4.85687 7.39084C5.41941 7.39084 5.95892 7.613 6.3567 8.00846C6.75448 8.40391 6.97795 8.94026 6.97795 9.49952C6.97795 10.0588 6.75448 10.5951 6.3567 10.9906C5.95892 11.386 5.41941 11.6082 4.85687 11.6082C4.29432 11.6082 3.75481 11.386 3.35703 10.9906C2.95925 10.5951 2.73578 10.0588 2.73578 9.49952ZM19 15.8904H13.4074M13.4074 15.8904C13.4074 16.4497 13.1833 16.9867 12.7855 17.3822C12.3876 17.7778 11.848 18 11.2853 18C10.7228 18 10.1832 17.7769 9.78547 17.3814C9.38769 16.986 9.16422 16.4496 9.16422 15.8904M13.4074 15.8904C13.4074 15.331 13.1833 14.795 12.7855 14.3994C12.3876 14.0039 11.848 13.7817 11.2853 13.7817C10.7228 13.7817 10.1832 14.0038 9.78547 14.3993C9.38769 14.7947 9.16422 15.3311 9.16422 15.8904M9.16422 15.8904H1M19 3.10868H15.9789M11.7358 3.10868H1M11.7358 3.10868C11.7358 2.54942 11.9593 2.01307 12.357 1.61762C12.7548 1.22216 13.2943 1 13.8569 1C14.1354 1 14.4112 1.05454 14.6686 1.16051C14.9259 1.26648 15.1597 1.42181 15.3567 1.61762C15.5537 1.81343 15.7099 2.04588 15.8165 2.30172C15.9231 2.55756 15.9779 2.83176 15.9779 3.10868C15.9779 3.38559 15.9231 3.6598 15.8165 3.91563C15.7099 4.17147 15.5537 4.40393 15.3567 4.59974C15.1597 4.79555 14.9259 4.95087 14.6686 5.05684C14.4112 5.16281 14.1354 5.21735 13.8569 5.21735C13.2943 5.21735 12.7548 4.99519 12.357 4.59974C11.9593 4.20428 11.7358 3.66793 11.7358 3.10868Z" stroke="white" stroke-width="1.5" stroke-miterlimit="10" stroke-linecap="round"/>
</svg>
