<svg width="43" height="43" viewBox="0 0 43 43" fill="none" xmlns="http://www.w3.org/2000/svg">
<circle cx="21.5" cy="21.5" r="21.5" fill="white"/>
<path d="M25.0448 17.2312C25.3531 16.9229 25.8528 16.9229 26.1611 17.2312C26.4693 17.5394 26.4693 18.0392 26.1611 18.3474L18.3474 26.1611C18.0392 26.4693 17.5394 26.4693 17.2312 26.1611C16.9229 25.8528 16.9229 25.3531 17.2312 25.0448L25.0448 17.2312Z" fill="#3C9CD7"/>
<path d="M17.2323 18.3475C16.9241 18.0393 16.9241 17.5395 17.2323 17.2313C17.5406 16.923 18.0403 16.923 18.3486 17.2313L26.1622 25.0449C26.4705 25.3532 26.4705 25.8529 26.1622 26.1612C25.854 26.4694 25.3542 26.4694 25.046 26.1612L17.2323 18.3475Z" fill="#3C9CD7"/>
</svg>
