<svg width="11" height="6" viewBox="0 0 11 6" fill="none" xmlns="http://www.w3.org/2000/svg">
<path d="M4.75811 5.71849C5.1678 6.09384 5.83204 6.09384 6.24173 5.71849C6.65142 5.34315 6.65142 4.73459 6.24173 4.35925L1.79088 0.281509C1.38119 -0.0938363 0.716956 -0.0938363 0.307267 0.281509C-0.102422 0.656854 -0.102422 1.26541 0.307267 1.64075L4.75811 5.71849Z" fill="#3C9CD7"/>
<path d="M4.75827 4.35925C4.34858 4.7346 4.34842 5.34315 4.75811 5.71849C5.1678 6.09384 5.83204 6.09384 6.24173 5.71849L10.6927 1.64076C11.1024 1.26541 11.1024 0.656858 10.6927 0.281513C10.283 -0.0938325 9.61881 -0.0938325 9.20912 0.281513L4.75827 4.35925Z" fill="#3C9CD7"/>
</svg>
