<svg width="220" height="121" viewBox="0 0 220 121" fill="none" xmlns="http://www.w3.org/2000/svg">
<path d="M18.0145 58.0905C19.7599 57.3547 21.1014 56.3631 22.0526 55.1068C22.9993 53.855 23.4704 52.4326 23.4704 50.8443C23.4704 47.7439 22.4385 45.3884 20.379 43.7731C18.3151 42.1624 15.4346 41.3547 11.7375 41.3547C8.51146 41.3547 5.82835 42.1893 3.68815 43.8539C1.55243 45.5185 0.480087 47.7574 0.480087 50.5706H4.72012C4.72012 48.8881 5.38416 47.5061 6.71674 46.4203C8.04483 45.3345 9.71841 44.7961 11.7375 44.7961C14.2591 44.7961 16.139 45.3435 17.3774 46.4428C18.6112 47.542 19.2304 48.9823 19.2304 50.7546C19.2304 52.5717 18.6606 53.9806 17.512 54.9811C16.3678 55.9817 14.5417 56.4842 12.0336 56.4842H8.25122V59.9211H12.0336C14.618 59.9211 16.5473 60.4102 17.8216 61.3883C19.0958 62.3664 19.7374 63.9099 19.7374 66.0232C19.7374 67.9166 19.0375 69.4331 17.6376 70.5683C16.2422 71.7079 14.2725 72.2778 11.7375 72.2778C9.47612 72.2778 7.65897 71.681 6.2905 70.4786C4.92202 69.2806 4.24003 67.7685 4.24003 65.9514H0C0 69.2088 1.13965 71.6451 3.42791 73.2649C5.7117 74.8846 8.48005 75.6922 11.7375 75.6922C15.4481 75.6922 18.4183 74.8442 20.6393 73.1482C22.8647 71.4522 23.9775 69.0473 23.9775 65.9289C23.9775 63.9592 23.4749 62.3215 22.4744 61.0249C21.4738 59.7237 19.9887 58.7456 18.0145 58.0905Z" fill="#1C1C1C"/>
<path d="M44.1273 68.2217C43.5619 69.2895 42.6466 70.1914 41.3858 70.9272C40.125 71.6586 38.7027 72.0265 37.1099 72.0265C35.6921 72.0265 34.6242 71.7034 33.9153 71.0618C33.2019 70.4202 32.8475 69.5273 32.8475 68.3832C32.8475 67.082 33.4128 65.9693 34.5435 65.045C35.6741 64.1207 37.2266 63.6586 39.1963 63.6586H44.1273V68.2217ZM48.3673 70.2138V58.2475C48.3673 55.5285 47.5148 53.4646 45.8098 52.0602C44.1048 50.6558 41.8255 49.9514 38.9674 49.9514C36.051 49.9514 33.682 50.6962 31.8604 52.1858C30.0432 53.6755 29.1324 55.376 29.1324 57.2873H33.3769C33.3769 56.2015 33.866 55.2817 34.8531 54.5235C35.8401 53.7697 37.1323 53.3883 38.7386 53.3883C40.466 53.3883 41.7941 53.8146 42.7274 54.6626C43.6606 55.5106 44.1273 56.6906 44.1273 58.2026V60.7242H39.3354C35.9747 60.7242 33.3455 61.3838 31.4476 62.6984C29.5541 64.013 28.6074 65.8751 28.6074 68.289C28.6074 70.6266 29.267 72.4437 30.5906 73.7315C31.9097 75.0237 33.8794 75.6698 36.4907 75.6698C38.0656 75.6698 39.5103 75.3018 40.825 74.5615C42.1396 73.8167 43.2389 72.8655 44.1273 71.7034C44.1542 72.2553 44.208 72.7847 44.2843 73.2873C44.3606 73.7898 44.4772 74.4314 44.6298 75.2121H49.0089C48.7621 74.3865 48.5961 73.5699 48.5019 72.7578C48.4122 71.9502 48.3673 71.1022 48.3673 70.2138Z" fill="#1C1C1C"/>
<path d="M55.2871 75.2122H59.5496V53.873H70.964V75.2122H75.204V50.4092H55.2871V75.2122Z" fill="#1C1C1C"/>
<path d="M96.9417 68.2217C96.3764 69.2895 95.4611 70.1914 94.2003 70.9272C92.9395 71.6586 91.5172 72.0265 89.9244 72.0265C88.5065 72.0265 87.4387 71.7034 86.7298 71.0618C86.0164 70.4202 85.6619 69.5273 85.6619 68.3832C85.6619 67.082 86.2272 65.9693 87.3579 65.045C88.4886 64.1207 90.041 63.6586 92.0107 63.6586H96.9417V68.2217ZM101.182 70.2138V58.2475C101.182 55.5285 100.329 53.4646 98.6243 52.0602C96.9193 50.6558 94.64 49.9514 91.7819 49.9514C88.8655 49.9514 86.4964 50.6962 84.6748 52.1858C82.8577 53.6755 81.9468 55.376 81.9468 57.2873H86.1913C86.1913 56.2015 86.6804 55.2817 87.6675 54.5235C88.6546 53.7697 89.9513 53.3883 91.5531 53.3883C93.2805 53.3883 94.6086 53.8146 95.5418 54.6626C96.4751 55.5106 96.9417 56.6906 96.9417 58.2026V60.7242H92.1498C88.7892 60.7242 86.1599 61.3838 84.2665 62.6984C82.3686 64.013 81.4219 65.8751 81.4219 68.289C81.4219 70.6266 82.0814 72.4437 83.405 73.7315C84.7287 75.0237 86.6939 75.6698 89.3052 75.6698C90.8801 75.6698 92.3248 75.3018 93.6394 74.5615C94.9541 73.8167 96.0533 72.8655 96.9417 71.7034C96.9731 72.2553 97.0225 72.7847 97.1032 73.2873C97.175 73.7898 97.2917 74.4314 97.4442 75.2121H101.823C101.577 74.3865 101.411 73.5699 101.316 72.7578C101.227 71.9502 101.182 71.1022 101.182 70.2138Z" fill="#1C1C1C"/>
<path d="M114.912 66.8802C115.527 64.9464 115.913 62.5505 116.083 59.6924L116.312 54.2858H123.944V71.7978H112.485C113.49 70.4517 114.302 68.814 114.912 66.8802ZM109.824 75.2122H127.13V80.7444H131.37V71.7978H128.184V50.4092H112.206L111.843 59.6924C111.614 63.1023 111.161 65.588 110.488 67.1539C109.815 68.7243 108.832 70.2678 107.531 71.7978H105.606L105.584 80.7444H109.824V75.2122Z" fill="#1C1C1C"/>
<path d="M152.094 75.2122H156.335V50.4092H152.094V61.182H140.702V50.4092H136.436V75.2122H140.702V64.574H152.094V75.2122Z" fill="#1C1C1C"/>
<path d="M177.885 70.4921C177.086 71.3625 175.821 71.7978 174.075 71.7978H167.771V62.3979H174.075C175.803 62.3979 177.068 62.8645 177.871 63.7978C178.674 64.731 179.074 65.8527 179.074 67.1674C179.074 68.5089 178.679 69.6172 177.885 70.4921ZM183.336 67.0059C183.336 64.5785 182.542 62.6312 180.945 61.173C179.347 59.7148 177.059 58.9835 174.075 58.9835H167.771V50.4092H163.531V75.2122H174.075C177.041 75.2122 179.325 74.4584 180.931 72.9419C182.537 71.4298 183.336 69.4512 183.336 67.0059Z" fill="#1C1C1C"/>
<path d="M192.187 50.4092H187.92V75.2122H192.187V50.4092Z" fill="#1C1C1C"/>
<path d="M215.567 57.081H215.634V75.2122H219.875V50.4092H215.634L204.265 68.5179H204.198V50.4092H199.953V75.2122H204.198L215.567 57.081Z" fill="#1C1C1C"/>
<path d="M153.627 96.8162C153.43 100.818 153.048 103.56 152.483 105.032C151.918 106.508 150.832 107.244 149.226 107.244L148.31 107.266L148.221 110.981H149.455C152.528 110.981 154.641 109.895 155.794 107.728C156.948 105.556 157.638 101.918 157.867 96.8162L158.168 89.6418H166.581V110.981H170.843V86.178H154.085L153.627 96.8162Z" fill="#1C1C1C"/>
<path d="M186.224 105.341H186.156L185.286 102.039L179.808 86.178H175.061L184.344 110.478L183.222 113.157C182.518 114.795 181.93 115.899 181.454 116.473C180.983 117.043 180.234 117.33 179.211 117.33C179.04 117.33 178.659 117.307 178.062 117.263C177.47 117.218 177.192 117.2 177.237 117.218L176.801 120.632C177.111 120.708 177.528 120.789 178.062 120.87C178.601 120.955 179.049 121 179.417 121C181.432 121 183.007 120.39 184.137 119.178C185.268 117.962 186.147 116.504 186.776 114.808L197.275 86.178H192.528L186.224 105.341Z" fill="#1C1C1C"/>
<path d="M215.636 86.1779V98.4897C214.72 98.75 213.796 98.9384 212.872 99.0595C211.948 99.1852 210.96 99.2435 209.906 99.2435C208.089 99.2435 206.743 98.7859 205.872 97.8705C204.998 96.9508 204.562 95.4477 204.562 93.3523V86.1555H200.322V93.3523C200.322 96.5335 201.148 98.8846 202.799 100.415C204.45 101.94 206.819 102.707 209.906 102.707C210.96 102.707 211.943 102.644 212.849 102.523C213.76 102.402 214.689 102.209 215.636 101.949V110.981H219.898V86.1779H215.636Z" fill="#1C1C1C"/>
<path d="M216.279 41.2876H203.555V44.3252H216.279V41.2876Z" fill="#1C1C1C"/>
<path d="M140.702 41.2876H105.584V44.3252H140.702V41.2876Z" fill="#3C9CD7"/>
<path d="M140.702 34.0278H105.584V37.0654H140.702V34.0278Z" fill="#3C9CD7"/>
<path d="M140.702 26.7637H105.584V29.8012H140.702V26.7637Z" fill="#3C9CD7"/>
<path d="M105.584 110.981H140.702V107.943H105.584V110.981Z" fill="#3C9CD7"/>
<path d="M105.584 103.717H140.702V100.679H105.584V103.717Z" fill="#3C9CD7"/>
<path d="M105.584 96.4572H140.702V93.4197H105.584V96.4572Z" fill="#3C9CD7"/>
<path d="M105.584 89.1931H140.702V86.1555H105.584V89.1931Z" fill="#3C9CD7"/>
<path d="M137.665 12.0471V22.5372H140.702V0H137.665V1.04991C137.66 11.226 129.382 19.4996 119.206 19.4996H105.584V22.5372H119.206C127.04 22.5372 133.909 18.3241 137.665 12.0471Z" fill="#3C9CD7"/>
</svg>
