<svg width="129" height="45" viewBox="0 0 129 45" fill="none" xmlns="http://www.w3.org/2000/svg">
<path d="M7.5131 26.9342C8.24102 26.6342 8.80052 26.2299 9.19723 25.7177C9.59206 25.2073 9.78855 24.6274 9.78855 23.9798C9.78855 22.7157 9.35816 21.7553 8.49925 21.0967C7.63847 20.44 6.43713 20.1107 4.89521 20.1107C3.54978 20.1107 2.43076 20.451 1.53817 21.1297C0.647455 21.8084 0.200224 22.7212 0.200224 23.8682H1.96856C1.96856 23.1822 2.24551 22.6188 2.80127 22.1761C3.35516 21.7334 4.05314 21.5138 4.89521 21.5138C5.94686 21.5138 6.73091 21.737 7.24738 22.1852C7.76197 22.6334 8.02021 23.2206 8.02021 23.9432C8.02021 24.6841 7.78256 25.2585 7.30352 25.6664C6.82635 26.0744 6.06475 26.2793 5.01871 26.2793H3.44124V27.6806H5.01871C6.09656 27.6806 6.9012 27.88 7.43263 28.2788C7.96407 28.6776 8.23166 29.3069 8.23166 30.1685C8.23166 30.9405 7.93974 31.5588 7.35591 32.0216C6.77395 32.4863 5.95247 32.7186 4.89521 32.7186C3.9521 32.7186 3.19424 32.4753 2.6235 31.985C2.05277 31.4966 1.76834 30.8801 1.76834 30.1392H0C0 31.4673 0.475299 32.4606 1.42964 33.121C2.38211 33.7814 3.53668 34.1107 4.89521 34.1107C6.44274 34.1107 7.68151 33.765 8.60778 33.0735C9.53593 32.382 10 31.4015 10 30.1301C10 29.327 9.79042 28.6593 9.37313 28.1306C8.95584 27.6001 8.33645 27.2013 7.5131 26.9342Z" fill="#1C1C1C"/>
<path d="M18.8465 30.9251C18.5971 31.3818 18.1933 31.7676 17.6371 32.0823C17.0809 32.3951 16.4535 32.5524 15.7508 32.5524C15.1254 32.5524 14.6543 32.4143 14.3415 32.1398C14.0268 31.8654 13.8705 31.4835 13.8705 30.9942C13.8705 30.4377 14.1199 29.9617 14.6187 29.5664C15.1174 29.1711 15.8023 28.9734 16.6712 28.9734H18.8465V30.9251ZM20.717 31.7772V26.659C20.717 25.4961 20.3409 24.6133 19.5887 24.0127C18.8366 23.412 17.8311 23.1107 16.5703 23.1107C15.2837 23.1107 14.2386 23.4293 13.435 24.0664C12.6334 24.7035 12.2316 25.4309 12.2316 26.2484H14.104C14.104 25.784 14.3198 25.3906 14.7552 25.0662C15.1907 24.7438 15.7607 24.5807 16.4693 24.5807C17.2314 24.5807 17.8172 24.763 18.2289 25.1257C18.6406 25.4884 18.8465 25.9931 18.8465 26.6398V27.7184H16.7326C15.2501 27.7184 14.0902 28.0005 13.2529 28.5627C12.4176 29.125 12 29.9214 12 30.9539C12 31.9537 12.291 32.7309 12.8749 33.2817C13.4568 33.8344 14.3257 34.1107 15.4777 34.1107C16.1724 34.1107 16.8098 33.9534 17.3897 33.6367C17.9697 33.3181 18.4546 32.9113 18.8465 32.4143C18.8584 32.6503 18.8821 32.8768 18.9158 33.0917C18.9494 33.3066 19.0009 33.5811 19.0682 33.915H21C20.8911 33.5619 20.8179 33.2126 20.7763 32.8652C20.7368 32.5198 20.717 32.1571 20.717 31.7772Z" fill="#1C1C1C"/>
<path d="M24 34.1107H25.7121V24.6469H30.2969V34.1107H32V23.1107H24V34.1107Z" fill="#1C1C1C"/>
<path d="M41.8465 30.9251C41.5971 31.3818 41.1933 31.7676 40.6371 32.0823C40.0809 32.3951 39.4535 32.5524 38.7508 32.5524C38.1254 32.5524 37.6543 32.4143 37.3415 32.1398C37.0268 31.8654 36.8705 31.4835 36.8705 30.9942C36.8705 30.4377 37.1199 29.9617 37.6187 29.5664C38.1174 29.1711 38.8023 28.9734 39.6712 28.9734H41.8465V30.9251ZM43.717 31.7772V26.659C43.717 25.4961 43.3409 24.6133 42.5887 24.0127C41.8366 23.412 40.8311 23.1107 39.5703 23.1107C38.2837 23.1107 37.2386 23.4293 36.435 24.0664C35.6334 24.7035 35.2316 25.4309 35.2316 26.2484H37.104C37.104 25.784 37.3198 25.3906 37.7552 25.0662C38.1907 24.7438 38.7627 24.5807 39.4693 24.5807C40.2314 24.5807 40.8172 24.763 41.2289 25.1257C41.6406 25.4884 41.8465 25.9931 41.8465 26.6398V27.7184H39.7326C38.2501 27.7184 37.0902 28.0005 36.2549 28.5627C35.4176 29.125 35 29.9214 35 30.9539C35 31.9537 35.291 32.7309 35.8749 33.2817C36.4588 33.8344 37.3257 34.1107 38.4777 34.1107C39.1724 34.1107 39.8098 33.9534 40.3897 33.6367C40.9697 33.3181 41.4546 32.9113 41.8465 32.4143C41.8603 32.6503 41.8821 32.8768 41.9177 33.0917C41.9494 33.3066 42.0009 33.5811 42.0682 33.915H44C43.8911 33.5619 43.8179 33.2126 43.7763 32.8652C43.7367 32.5198 43.717 32.1571 43.717 31.7772Z" fill="#1C1C1C"/>
<path d="M48.9793 30.1693C49.2415 29.3406 49.4061 28.3138 49.4789 27.089L49.5765 24.772H52.8323V32.2767H47.9438C48.3725 31.6998 48.719 30.998 48.9793 30.1693ZM46.8088 33.7399H54.1912V36.1107H56V32.2767H54.641V23.1107H47.8251L47.6701 27.089C47.5725 28.5503 47.3792 29.6155 47.092 30.2866C46.8049 30.9596 46.3858 31.621 45.8307 32.2767H45.0096L45 36.1107H46.8088V33.7399Z" fill="#1C1C1C"/>
<path d="M65.2954 34.1107H67V23.1107H65.2954V27.8884H60.7154V23.1107H59V34.1107H60.7154V29.3927H65.2954V34.1107Z" fill="#1C1C1C"/>
<path d="M76.5227 32.0174C76.1597 32.4034 75.5847 32.5964 74.7916 32.5964H71.9268V28.4276H74.7916C75.5766 28.4276 76.1516 28.6346 76.5165 29.0485C76.8815 29.4624 77.063 29.9599 77.063 30.5429C77.063 31.1379 76.8835 31.6294 76.5227 32.0174ZM79 30.4713C79 29.3947 78.6391 28.5311 77.9132 27.8844C77.1874 27.2377 76.1475 26.9134 74.7916 26.9134H71.9268V23.1107H70V34.1107H74.7916C76.1393 34.1107 77.1772 33.7764 77.9071 33.1038C78.6371 32.4333 79 31.5557 79 30.4713Z" fill="#1C1C1C"/>
<path d="M83 23.1107H81V34.1107H83V23.1107Z" fill="#1C1C1C"/>
<path d="M93.054 26.0697H93.0845V34.1107H95V23.1107H93.0845L87.948 31.1418H87.9176V23.1107H86V34.1107H87.9176L93.054 26.0697Z" fill="#1C1C1C"/>
<path d="M100.39 27.8287C100.303 29.6037 100.134 30.8195 99.8842 31.4722C99.6343 32.1268 99.1543 32.4532 98.4443 32.4532L98.0397 32.4631L98 34.1107H98.5454C99.904 34.1107 100.838 33.6292 101.348 32.6681C101.858 31.705 102.163 30.0912 102.264 27.8287L102.397 24.6469H106.116V34.1107H108V23.1107H100.592L100.39 27.8287Z" fill="#1C1C1C"/>
<path d="M114.528 31.3654H114.494L114.063 29.943L111.351 23.1107H109L113.597 33.5784L113.041 34.7323C112.693 35.4377 112.402 35.9132 112.166 36.1606C111.933 36.406 111.562 36.5297 111.055 36.5297C110.971 36.5297 110.782 36.5201 110.486 36.5007C110.193 36.4814 110.055 36.4737 110.078 36.4814L109.862 37.9522C110.015 37.9851 110.222 38.0199 110.486 38.0547C110.753 38.0914 110.975 38.1107 111.157 38.1107C112.155 38.1107 112.935 37.8479 113.495 37.326C114.055 36.8023 114.49 36.1741 114.801 35.4435L120 23.1107H117.649L114.528 31.3654Z" fill="#1C1C1C"/>
<path d="M127.04 23.1207V28.5759C126.62 28.6912 126.195 28.7747 125.77 28.8284C125.345 28.8841 124.891 28.9099 124.406 28.9099C123.571 28.9099 122.952 28.7071 122.552 28.3016C122.149 27.894 121.949 27.228 121.949 26.2996V23.1107H120V26.2996C120 27.7091 120.38 28.7509 121.139 29.4288C121.898 30.1048 122.987 30.4447 124.406 30.4447C124.891 30.4447 125.343 30.4169 125.759 30.3632C126.178 30.3095 126.605 30.224 127.04 30.1087V34.1107H129V23.1207H127.04Z" fill="#1C1C1C"/>
<path d="M93.4893 20H87V21.5491H93.4893V20Z" fill="#1C1C1C"/>
<path d="M66.7552 18.0558H48.8457V19.6049H66.7552V18.0558Z" fill="#3C9CD7"/>
<path d="M66.7552 14.3535H48.8457V15.9026H66.7552V14.3535Z" fill="#3C9CD7"/>
<path d="M48.8457 44.1912H66.7552V42.6421H48.8457V44.1912Z" fill="#3C9CD7"/>
<path d="M48.8457 40.4866H66.7552V38.9375H48.8457V40.4866Z" fill="#3C9CD7"/>
<path d="M65.2061 6.14374V11.4935H66.7552V0H65.2061V0.535432C65.2039 5.72501 60.9822 9.9444 55.7926 9.9444H48.8457V11.4935H55.7926C59.7877 11.4935 63.2909 9.3449 65.2061 6.14374Z" fill="#3C9CD7"/>
</svg>
