<svg width="116" height="81" viewBox="0 0 116 81" fill="none" xmlns="http://www.w3.org/2000/svg">
<path fill-rule="evenodd" clip-rule="evenodd" d="M0 27H45.8392L51.8054 35.5096L58.5666 27H106V55H61.0329L50.6119 41.7626L40.5094 55H0V27Z" fill="#C5D2D8"/>
<path d="M20.2503 43.5603H12.6226V37H11V45H20.2503V43.5603ZM37.4855 37H35.8624V43.5603H27.748V37H26.1254V43.5603C26.1254 43.5603 26.1254 45 27.5861 45H36.0248C37.5341 45 37.4855 43.5603 37.4855 43.5603V37ZM74.3572 37H65.9184C64.4578 37 64.4578 38.4397 64.4578 38.4397V45H66.0803V42.4399H74.1948V45H75.8179V38.4397C75.8179 38.4397 75.8179 37 74.3572 37ZM66.0803 38.4397H74.1948V40.9998H66.0803V38.4397ZM95 45L93.0526 42.4399C94.6757 42.4399 94.6757 40.9998 94.6757 40.9998V38.4397C94.6757 38.4397 94.6757 37 93.0526 37H83.3156V45H84.9382V42.4399H91.2676L93.215 45H95ZM93.0526 40.9998H84.9382V38.4397H93.0526V40.9998Z" fill="#FEFEFE"/>
<path d="M115.985 53.0872C115.985 53.4326 115.936 53.7486 115.838 54.0363C115.739 54.324 115.541 54.5565 115.241 54.7338C114.942 54.9111 114.488 55 113.879 55H108.945C108.414 55 108.009 54.9043 107.729 54.7123C107.449 54.5203 107.258 54.2595 107.155 53.9283C107.052 53.5977 107 53.2167 107 52.7854C107 52.3536 107.054 51.9726 107.162 51.6419C107.27 51.3112 107.462 51.0499 107.736 50.8579C108.012 50.6665 108.414 50.5707 108.945 50.5707H110.093V51.6492H108.915C108.571 51.6492 108.314 51.6971 108.142 51.7928C107.97 51.8886 107.857 52.0204 107.803 52.1885C107.749 52.356 107.722 52.5504 107.722 52.7707C107.722 52.9915 107.749 53.1854 107.803 53.3534C107.857 53.521 107.97 53.6528 108.142 53.7486C108.314 53.8448 108.571 53.8927 108.915 53.8927H114.1C114.453 53.8927 114.716 53.8448 114.888 53.7486C115.059 53.6528 115.173 53.521 115.227 53.3534C115.281 53.1854 115.308 52.9915 115.308 52.7707C115.308 52.4449 115.205 52.1763 114.998 51.9653C114.792 51.7547 114.493 51.6492 114.1 51.6492H112.317V52.6413H111.64V50.5707H115.823V51.4045L115.027 51.4621C115.086 51.491 115.143 51.5222 115.197 51.5554C115.251 51.5891 115.298 51.6204 115.337 51.6492C115.524 51.7738 115.678 51.9511 115.801 52.1811C115.924 52.4112 115.985 52.7131 115.985 53.0872ZM115.823 49.1034H107.118V46.3139C107.118 45.8054 107.238 45.4053 107.479 45.1128C107.719 44.8207 108.085 44.6741 108.576 44.6741H109.961C110.461 44.6741 110.854 44.8133 111.139 45.0913C111.424 45.3692 111.576 45.7575 111.596 46.2562C111.616 45.9397 111.724 45.7072 111.92 45.5587C112.116 45.4102 112.421 45.2783 112.833 45.1631L115.823 44.3146V45.5226L112.907 46.2562C112.73 46.3041 112.563 46.3617 112.406 46.4286C112.249 46.4961 112.123 46.5771 112.03 46.6734C111.937 46.7691 111.89 46.8985 111.89 47.0617V47.9531H115.823V49.1034ZM111.095 47.9531V46.8316C111.095 46.4765 111.007 46.2108 110.83 46.0335C110.653 45.8557 110.349 45.7673 109.917 45.7673H108.767C108.414 45.7673 108.159 45.8513 108.002 46.0188C107.844 46.1869 107.766 46.3906 107.766 46.6299V47.9531H111.095ZM116 41.0503C116 41.4816 115.948 41.8602 115.845 42.1865C115.742 42.5122 115.528 42.7711 115.205 42.9631C114.88 43.1546 114.394 43.2503 113.746 43.2503H108.945C108.404 43.2503 107.995 43.1546 107.714 42.9631C107.435 42.7711 107.246 42.5098 107.148 42.1791C107.049 41.8484 107 41.4674 107 41.0357C107 40.6044 107.052 40.2234 107.155 39.8927C107.258 39.5615 107.447 39.3007 107.722 39.1087C107.997 38.9172 108.404 38.821 108.945 38.821H113.746C114.404 38.821 114.893 38.9172 115.212 39.1087C115.531 39.3007 115.742 39.564 115.845 39.8995C115.948 40.2351 116 40.6185 116 41.0503ZM115.308 41.0503C115.308 40.8295 115.278 40.6356 115.219 40.4676C115.16 40.3 115.045 40.1682 114.873 40.0724C114.701 39.9762 114.444 39.9283 114.1 39.9283H108.915C108.581 39.9283 108.328 39.9762 108.157 40.0724C107.985 40.1682 107.869 40.3 107.81 40.4676C107.751 40.6356 107.722 40.8295 107.722 41.0503C107.722 41.2706 107.751 41.4626 107.81 41.6252C107.869 41.7884 107.985 41.9178 108.157 42.0135C108.328 42.1098 108.581 42.1576 108.915 42.1576H114.1C114.444 42.1576 114.701 42.1098 114.873 42.0135C115.045 41.9178 115.16 41.7884 115.219 41.6252C115.278 41.4626 115.308 41.2706 115.308 41.0503ZM116 35.1684C116 35.4751 115.975 35.7628 115.926 36.031C115.877 36.2996 115.781 36.5321 115.639 36.7285C115.497 36.9253 115.286 37.0812 115.005 37.1959C114.726 37.3112 114.35 37.3689 113.879 37.3689H107.118V36.2469H114.144C114.458 36.2469 114.696 36.1966 114.858 36.0959C115.02 35.9953 115.131 35.8634 115.19 35.7003C115.249 35.5376 115.278 35.3598 115.278 35.1684C115.278 34.9764 115.249 34.7967 115.19 34.6291C115.131 34.4611 115.02 34.3273 114.858 34.2262C114.696 34.1255 114.458 34.0752 114.144 34.0752H107.118V32.9826H113.879C114.34 32.9826 114.713 33.0377 114.998 33.1477C115.283 33.258 115.497 33.4114 115.639 33.6078C115.781 33.8046 115.877 34.0371 115.926 34.3053C115.975 34.5739 116 34.8616 116 35.1684ZM115.823 31.3858H107.118V28.6392C107.118 28.1313 107.238 27.7307 107.479 27.4386C107.719 27.146 108.085 27 108.576 27H110.152C110.496 27 110.82 27.0454 111.124 27.1363C111.429 27.2276 111.674 27.4025 111.861 27.6614C112.047 27.9202 112.141 28.2939 112.141 28.7828V30.2213H115.823V31.3858ZM111.478 30.2213V29.1428C111.478 28.7975 111.36 28.5386 111.124 28.3662C110.889 28.1933 110.515 28.1073 110.005 28.1073H109.033C108.591 28.1073 108.269 28.1864 108.068 28.3442C107.867 28.5025 107.766 28.7018 107.766 28.9411V30.2213H111.478Z" fill="#96A5AA"/>
<mask id="mask0_198_152" style="mask-type:alpha" maskUnits="userSpaceOnUse" x="22" y="0" width="57" height="81">
<path fill-rule="evenodd" clip-rule="evenodd" d="M51.0726 44.4081L22 81L47.7517 39.4677L34.381 19.5787H42.7618L52.2414 33.6799L79 0L55.2982 38.2268L71.4486 62.2505H63.0678L51.0726 44.4081Z" fill="#62D8D8"/>
</mask>
<g mask="url(#mask0_198_152)">
<rect x="15" y="-4" width="72" height="89" fill="#94A6AE"/>
</g>
</svg>
