<svg width="167" height="309" viewBox="0 0 167 309" fill="none" xmlns="http://www.w3.org/2000/svg">
<path d="M0.916016 308.334H166.364V293.293H0.916016V308.334Z" fill="white" fill-opacity="0.3"/>
<path d="M0.916016 273.552H166.364V260.392H0.916016V273.552Z" fill="white" fill-opacity="0.3"/>
<path d="M0.916016 239.711H166.364V224.67H0.916016V239.711Z" fill="white" fill-opacity="0.3"/>
<path d="M166.364 193.649H0.916016V208.689H166.364V193.649Z" fill="white" fill-opacity="0.3"/>
<path d="M166.364 160.747H0.916016V174.848H166.364V160.747Z" fill="white" fill-opacity="0.3"/>
<path d="M166.364 125.026H0.916016V140.066H166.364V125.026Z" fill="white" fill-opacity="0.3"/>
<path d="M152.053 56.7815V106.225H166.364V0H152.053V4.94855C152.032 52.9115 113.032 91.9079 65.0911 91.9079H0.916016V106.225H65.0911C101.998 106.225 134.361 86.3672 152.053 56.7815Z" fill="white" fill-opacity="0.3"/>
</svg>
