<svg width="91" height="168" viewBox="0 0 91 168" fill="none" xmlns="http://www.w3.org/2000/svg">
<path d="M0.869141 167.191H90.5813V159.035H0.869141V167.191Z" fill="white" fill-opacity="0.3"/>
<path d="M0.869141 148.331H90.5813V141.195H0.869141V148.331Z" fill="white" fill-opacity="0.3"/>
<path d="M0.869141 129.981H90.5813V121.825H0.869141V129.981Z" fill="white" fill-opacity="0.3"/>
<path d="M90.5813 105.004H0.869141V113.159H90.5813V105.004Z" fill="white" fill-opacity="0.3"/>
<path d="M90.5813 87.1636H0.869141V94.8095H90.5813V87.1636Z" fill="white" fill-opacity="0.3"/>
<path d="M90.5813 67.7939H0.869141V75.9496H90.5813V67.7939Z" fill="white" fill-opacity="0.3"/>
<path d="M82.8216 30.7892V57.5993H90.5813V0H82.8216V2.6833C82.8101 28.6907 61.6629 49.836 35.6674 49.836H0.869141V57.5993H35.6674C55.6798 57.5993 73.228 46.8316 82.8216 30.7892Z" fill="white" fill-opacity="0.3"/>
</svg>
