<svg width="91" height="170" viewBox="0 0 91 170" fill="none" xmlns="http://www.w3.org/2000/svg">
<path d="M0 170H91V162H0V170Z" fill="#E4EDF3"/>
<path d="M0 151H91V144H0V151Z" fill="#E4EDF3"/>
<path d="M0 132H91V124H0V132Z" fill="#E4EDF3"/>
<path d="M91 107H0V115H91V107Z" fill="#E4EDF3"/>
<path d="M91 89H0V97H91V89Z" fill="#E4EDF3"/>
<path d="M91 69H0V77H91V69Z" fill="#E4EDF3"/>
<path d="M83.1289 31.5379V59H91V0H83.1289V2.74855C83.1173 29.3884 61.6665 51.048 35.2978 51.048H0V59H35.2978C55.5975 59 73.3976 47.9705 83.1289 31.5379Z" fill="#E4EDF3"/>
</svg>
