<svg width="43" height="43" viewBox="0 0 43 43" fill="none" xmlns="http://www.w3.org/2000/svg">
<path d="M33.4341 0.110229L41.954 8.99148V42.7647H10.127V42.875H42.0627V9.10326L33.4341 0.110229Z" fill="#909090"/>
<path d="M33.3278 0H10.0176V42.7647H41.9533V8.99303L33.3278 0Z" fill="#F4F4F4"/>
<path d="M9.78469 2.29688H0V12.7507H30.7781V2.29688H9.78469Z" fill="#7A7B7C"/>
<path d="M30.9421 12.5731H0.199219V2.11157H30.9421V12.5731Z" fill="#DD2025"/>
<path d="M10.392 3.88021H8.39062V11.2302H9.96475V8.75112L10.3123 8.77102C10.6502 8.76637 10.985 8.70583 11.3031 8.59187C11.5827 8.49692 11.8397 8.34522 12.058 8.14627C12.2818 7.95861 12.4576 7.72029 12.5709 7.45108C12.726 7.00505 12.7809 6.53035 12.7317 6.06071C12.723 5.72514 12.6642 5.39276 12.5572 5.07458C12.4607 4.8446 12.3174 4.63729 12.1362 4.4659C11.9551 4.29451 11.7401 4.16282 11.5052 4.07927C11.3026 4.00425 11.0927 3.95087 10.8789 3.92002C10.7174 3.89372 10.5541 3.88041 10.3904 3.88021M10.101 7.3929H9.96475V5.12665H10.2603C10.3907 5.11724 10.5216 5.13726 10.6432 5.18524C10.7649 5.23321 10.8742 5.3079 10.9631 5.4038C11.1474 5.65036 11.2458 5.95046 11.2433 6.25824C11.2433 6.63493 11.2433 6.9764 10.9034 7.2168C10.6586 7.35166 10.3798 7.41385 10.101 7.3929ZM15.7222 3.8603C15.5523 3.8603 15.3869 3.87255 15.2705 3.87715L14.9061 3.88633H13.7117V11.2363H15.1174C15.6545 11.2501 16.1892 11.1591 16.6915 10.9684C17.096 10.8086 17.4539 10.5502 17.7328 10.2165C18.006 9.88141 18.2011 9.48961 18.3039 9.06961C18.4247 8.59481 18.4834 8.10635 18.4785 7.61646C18.5085 7.03788 18.4637 6.45786 18.3453 5.89074C18.2319 5.47377 18.0221 5.08928 17.7328 4.76833C17.5058 4.5088 17.2267 4.30009 16.9136 4.15583C16.6453 4.0315 16.3631 3.93998 16.0729 3.88327C15.9575 3.86436 15.8407 3.85565 15.7238 3.85724M15.4451 9.88577H15.292V5.19402H15.3119C15.6276 5.15752 15.947 5.21449 16.2306 5.35787C16.4384 5.52374 16.6076 5.73271 16.7268 5.97037C16.8553 6.22047 16.9294 6.49498 16.9442 6.7758C16.958 7.11268 16.9442 7.3883 16.9442 7.61646C16.9499 7.87927 16.9329 8.14207 16.8937 8.40199C16.8455 8.66853 16.7583 8.92651 16.6349 9.16762C16.4955 9.39247 16.305 9.58132 16.079 9.71887C15.8902 9.84137 15.6664 9.8984 15.442 9.88118M23.2208 3.88633H19.4998V11.2363H21.074V8.32083H23.0646V6.95496H21.074V5.25221H23.2177V3.88633" fill="#464648"/>
<path d="M29.8838 27.9529C29.8838 27.9529 34.7654 27.0679 34.7654 28.7354C34.7654 30.4029 31.7412 29.7246 29.8838 27.9529ZM26.2746 28.08C25.4989 28.251 24.743 28.5019 24.0191 28.8288L24.6316 27.4507C25.2441 26.0726 25.8796 24.1937 25.8796 24.1937C26.6086 25.425 27.4591 26.5803 28.4184 27.6421C27.6963 27.7497 26.9806 27.8969 26.2746 28.0831V28.08ZM24.3422 18.1269C24.3422 16.6738 24.8123 16.2772 25.1783 16.2772C25.5442 16.2772 25.9561 16.4533 25.9699 17.715C25.8505 18.9837 25.5849 20.2344 25.1783 21.4421C24.6194 20.4288 24.3309 19.2886 24.3407 18.1315L24.3422 18.1269ZM17.2234 34.2295C15.7259 33.3338 20.364 30.576 21.2047 30.4872C21.2001 30.4887 18.7914 35.1667 17.2234 34.2295ZM36.191 28.9329C36.1757 28.7798 36.0379 27.0847 33.0213 27.1567C31.7639 27.1346 30.507 27.2233 29.2652 27.4216C28.0614 26.21 27.0253 24.8427 26.1843 23.3561C26.7138 21.8238 27.0347 20.2272 27.1383 18.6093C27.0939 16.7718 26.6544 15.7183 25.2456 15.7336C23.8369 15.7489 23.6317 16.9815 23.817 18.816C23.9983 20.0487 24.3407 21.2524 24.8353 22.396C24.8353 22.396 24.1845 24.4219 23.3239 26.437C22.4634 28.4521 21.8754 29.5087 21.8754 29.5087C20.3787 29.9953 18.9699 30.7191 17.7027 31.6524C16.4409 32.8269 15.928 33.7288 16.5925 34.6307C17.1652 35.4086 19.1696 35.5847 20.9612 33.2373C21.9115 32.0237 22.781 30.749 23.5643 29.4214C23.5643 29.4214 26.2961 28.6726 27.1459 28.4674C27.9958 28.2623 29.0232 28.0999 29.0232 28.0999C29.0232 28.0999 31.5176 30.6097 33.9232 30.5208C36.3288 30.432 36.2124 29.083 36.1971 28.936" fill="#DD2025"/>
<path d="M33.2109 0.11792V9.11095H41.8365L33.2109 0.11792Z" fill="#909090"/>
<path d="M33.3281 0V8.99303H41.9537L33.3281 0Z" fill="#F4F4F4"/>
<path d="M10.2748 3.76229H8.27344V11.1123H9.85369V8.63473L10.2028 8.65463C10.5407 8.64998 10.8754 8.58944 11.1935 8.47548C11.4732 8.38053 11.7302 8.22883 11.9484 8.02988C12.1706 7.8417 12.3448 7.60343 12.4568 7.3347C12.6118 6.88866 12.6667 6.41396 12.6176 5.94432C12.6089 5.60875 12.55 5.27637 12.443 4.9582C12.3466 4.72822 12.2032 4.5209 12.0221 4.34951C11.841 4.17812 11.626 4.04644 11.3911 3.96288C11.1876 3.88713 10.9766 3.83323 10.7617 3.8021C10.6002 3.7758 10.4369 3.76249 10.2732 3.76229M9.98384 7.27498H9.84756V5.00873H10.1446C10.2751 4.99932 10.4059 5.01934 10.5276 5.06732C10.6492 5.11529 10.7586 5.18998 10.8475 5.28588C11.0317 5.53244 11.1301 5.83254 11.1277 6.14032C11.1277 6.51701 11.1277 6.85848 10.7878 7.09888C10.5429 7.23375 10.2641 7.2944 9.98538 7.27345M15.6051 3.74238C15.4351 3.74238 15.2697 3.75463 15.1533 3.75923L14.7935 3.76841H13.5991V11.1184H15.0048C15.5419 11.1322 16.0766 11.0412 16.5789 10.8504C16.9834 10.6907 17.3413 10.4322 17.6202 10.0986C17.8934 9.76349 18.0886 9.37169 18.1913 8.9517C18.3121 8.4769 18.3708 7.98843 18.3659 7.49854C18.3959 6.91996 18.3511 6.33994 18.2327 5.77282C18.1193 5.35585 17.9095 4.97137 17.6202 4.65041C17.3933 4.39088 17.1141 4.18217 16.801 4.03791C16.5327 3.91358 16.2505 3.82206 15.9603 3.76535C15.8449 3.74644 15.7281 3.73773 15.6112 3.73932M15.3325 9.76785H15.1794V5.0761H15.1993C15.515 5.0396 15.8344 5.09657 16.118 5.23995C16.3258 5.40582 16.495 5.61479 16.6142 5.85245C16.7427 6.10255 16.8168 6.37706 16.8316 6.65788C16.8454 6.99476 16.8316 7.27038 16.8316 7.49854C16.8373 7.76135 16.8203 8.02415 16.7811 8.28407C16.7329 8.55061 16.6457 8.80859 16.5223 9.0497C16.3829 9.27455 16.1924 9.4634 15.9664 9.60095C15.7777 9.72345 15.5538 9.78048 15.3294 9.76326M23.1036 3.76841H19.3827V11.1184H20.9568V8.20291H22.9474V6.83704H20.9568V5.13429H23.1005V3.76841" fill="white"/>
</svg>
