<svg width="10" height="6" viewBox="0 0 10 6" fill="none" xmlns="http://www.w3.org/2000/svg">
<path d="M8.04366 0.23118C8.3519 -0.0770599 8.85165 -0.0770599 9.15989 0.23118C9.46813 0.539419 9.46813 1.03917 9.15989 1.34741L5.25355 5.2537C4.94531 5.56194 4.44555 5.56194 4.13731 5.2537C3.82907 4.94546 3.82907 4.44571 4.13731 4.13747L8.04366 0.23118Z" fill="#455A64"/>
<path d="M0.23118 1.34751C-0.0770599 1.03927 -0.0770599 0.539518 0.23118 0.231278C0.539419 -0.0769612 1.03917 -0.0769611 1.34741 0.231279L5.2536 4.13747C5.56184 4.44571 5.56179 4.94546 5.25355 5.2537C4.94531 5.56194 4.44555 5.56194 4.13731 5.2537L0.23118 1.34751Z" fill="#455A64"/>
</svg>
