<svg width="50" height="50" viewBox="0 0 50 50" fill="none" xmlns="http://www.w3.org/2000/svg">
<path d="M23.1552 41.3529H19.8261V15.8235H36.3478V27.4435C36.3478 27.6619 36.4349 27.8714 36.5898 28.0259C36.7447 28.1803 36.9548 28.2671 37.1739 28.2671C37.393 28.2671 37.6031 28.1803 37.758 28.0259C37.913 27.8714 38 27.6619 38 27.4435V15.8235C37.9996 15.3868 37.8254 14.9682 37.5156 14.6594C37.2059 14.3506 36.7859 14.1769 36.3478 14.1765H34.6957V11.7059C34.6952 11.2692 34.521 10.8505 34.2113 10.5417C33.9015 10.2329 33.4815 10.0593 33.0435 10.0588H27.2609V7.58824C27.2609 7.36982 27.1738 7.16035 27.0189 7.00591C26.864 6.85147 26.6539 6.76471 26.4348 6.76471C26.2157 6.76471 26.0056 6.85147 25.8507 7.00591C25.6957 7.16035 25.6087 7.36982 25.6087 7.58824V10.0588H19.8261V5.94118C19.8256 5.50448 19.6514 5.0858 19.3417 4.77701C19.0319 4.46822 18.612 4.29455 18.1739 4.29412H11.5652V1.82353C11.5652 1.60512 11.4782 1.39565 11.3233 1.24121C11.1683 1.08676 10.9582 1 10.7391 1C10.52 1 10.3099 1.08676 10.155 1.24121C10.0001 1.39565 9.91304 1.60512 9.91304 1.82353V4.29412H3.30435C2.8663 4.29455 2.44632 4.46822 2.13657 4.77701C1.82682 5.0858 1.65261 5.50448 1.65217 5.94118V41.3529H0.826087C0.606995 41.3529 0.396877 41.4397 0.241955 41.5941C0.0870339 41.7486 0 41.9581 0 42.1765C0 42.3949 0.0870339 42.6044 0.241955 42.7588C0.396877 42.9132 0.606995 43 0.826087 43H23.1552C23.3743 43 23.5844 42.9132 23.7393 42.7588C23.8943 42.6044 23.9813 42.3949 23.9813 42.1765C23.9813 41.9581 23.8943 41.7486 23.7393 41.5941C23.5844 41.4397 23.3743 41.3529 23.1552 41.3529ZM33.0435 11.7059V14.1765H19.8261V11.7059H33.0435ZM3.30435 5.94118H18.1739V41.3529H14.0435V33.1176C14.0435 32.8992 13.9564 32.6898 13.8015 32.5353C13.6466 32.3809 13.4365 32.2941 13.2174 32.2941H7.43478C7.21569 32.2941 7.00557 32.3809 6.85065 32.5353C6.69573 32.6898 6.6087 32.8992 6.6087 33.1176V41.3529H3.30435V5.94118ZM8.26087 41.3529V33.9412H12.3913V41.3529H8.26087Z" fill="url(#paint0_linear_454_818)"/>
<path d="M34.996 20.2368C34.9956 19.8043 34.8199 19.3895 34.5075 19.0836C34.195 18.7777 33.7714 18.6057 33.3296 18.6053H30.8299C30.3881 18.6057 29.9645 18.7777 29.6521 19.0836C29.3396 19.3895 29.1639 19.8043 29.1635 20.2368V22.6842C29.1639 23.1168 29.3396 23.5315 29.6521 23.8374C29.9645 24.1433 30.3881 24.3154 30.8299 24.3158H33.3296C33.7714 24.3154 34.195 24.1433 34.5075 23.8374C34.8199 23.5315 34.9956 23.1168 34.996 22.6842V20.2368ZM33.3296 22.6842H30.8299V20.2368H33.3296V22.6842ZM34.1628 28.4845C34.2799 28.4837 34.3956 28.459 34.5024 28.412C34.6092 28.365 34.7049 28.2967 34.7833 28.2115C34.8616 28.1263 34.921 28.0261 34.9577 27.9172C34.9943 27.8083 35.0074 27.6931 34.996 27.5789C34.9956 27.1464 34.8199 26.7316 34.5075 26.4257C34.195 26.1198 33.7714 25.9478 33.3296 25.9474H30.8299C30.3881 25.9478 29.9645 26.1198 29.6521 26.4257C29.3396 26.7316 29.1639 27.1464 29.1635 27.5789C29.1518 27.6929 29.1647 27.808 29.2013 27.9169C29.2378 28.0257 29.2973 28.1258 29.3758 28.2107C29.4543 28.2957 29.5501 28.3636 29.657 28.41C29.764 28.4565 29.8797 28.4805 29.9967 28.4805C30.1137 28.4805 30.2294 28.4565 30.3363 28.41C30.4433 28.3636 30.5391 28.2957 30.6176 28.2107C30.6961 28.1258 30.7556 28.0257 30.7921 27.9169C30.8287 27.808 30.8416 27.6929 30.8299 27.5789H33.3296C33.3182 27.6931 33.3313 27.8083 33.3679 27.9172C33.4046 28.0261 33.464 28.1263 33.5424 28.2115C33.6208 28.2967 33.7164 28.365 33.8232 28.412C33.93 28.459 34.0457 28.4837 34.1628 28.4845ZM27.497 20.2368C27.4966 19.8043 27.3209 19.3895 27.0084 19.0836C26.696 18.7777 26.2724 18.6057 25.8306 18.6053H23.3309C22.8891 18.6057 22.4655 18.7777 22.153 19.0836C21.8406 19.3895 21.6649 19.8043 21.6645 20.2368V22.6842C21.6649 23.1168 21.8406 23.5315 22.153 23.8374C22.4655 24.1433 22.8891 24.3154 23.3309 24.3158H25.8306C26.2724 24.3154 26.696 24.1433 27.0084 23.8374C27.3209 23.5315 27.4966 23.1168 27.497 22.6842V20.2368ZM25.8306 22.6842H23.3309V20.2368H25.8306V22.6842ZM26.6638 28.4845C26.7809 28.4837 26.8966 28.459 27.0034 28.412C27.1102 28.365 27.2059 28.2967 27.2842 28.2115C27.3626 28.1263 27.422 28.0261 27.4587 27.9172C27.4953 27.8083 27.5084 27.6931 27.497 27.5789C27.4966 27.1464 27.3209 26.7316 27.0084 26.4257C26.696 26.1198 26.2724 25.9478 25.8306 25.9474H23.3309C22.8891 25.9478 22.4655 26.1198 22.153 26.4257C21.8406 26.7316 21.6649 27.1464 21.6645 27.5789V30.0263C21.6649 30.2411 21.7086 30.4538 21.793 30.6521C21.8774 30.8504 22.0009 31.0304 22.1565 31.1819C22.312 31.3335 22.4965 31.4535 22.6995 31.5352C22.9024 31.6168 23.1198 31.6585 23.3392 31.6579C23.5602 31.6568 23.7717 31.5698 23.9272 31.4161C24.0827 31.2623 24.1694 31.0544 24.1683 30.838C24.1672 30.6217 24.0784 30.4146 23.9213 30.2624C23.7643 30.1101 23.5519 30.0252 23.3309 30.0263V27.5789H25.8306C25.8192 27.6931 25.8323 27.8083 25.8689 27.9172C25.9056 28.0261 25.965 28.1263 26.0434 28.2115C26.1217 28.2967 26.2174 28.365 26.3242 28.412C26.431 28.459 26.5467 28.4837 26.6638 28.4845ZM24.2016 34.1053C23.92 32.4508 21.5328 33.575 21.6645 34.9211V37.3684C21.6649 37.801 21.8406 38.2158 22.153 38.5216C22.4655 38.8275 22.8891 38.9996 23.3309 39H25.8306C26.2724 38.9996 26.696 38.8275 27.0084 38.5216C27.3209 38.2158 27.4966 37.801 27.497 37.3684V36.6832C27.497 36.4668 27.4092 36.2593 27.253 36.1063C27.0967 35.9533 26.8848 35.8674 26.6638 35.8674C26.4428 35.8674 26.2309 35.9533 26.0746 36.1063C25.9184 36.2593 25.8306 36.4668 25.8306 36.6832V37.3684H23.3309L23.4059 34.9211C23.5133 34.9201 23.6194 34.8981 23.7179 34.8564C23.8165 34.8146 23.9054 34.7538 23.9796 34.6778C24.0537 34.6017 24.1115 34.5118 24.1495 34.4135C24.1875 34.3151 24.2058 34.2103 24.2016 34.1053ZM13.3322 13.7105H14.9987C15.4405 13.7101 15.8641 13.5381 16.1765 13.2322C16.489 12.9263 16.6647 12.5115 16.6651 12.0789V9.63158C16.6647 9.19899 16.489 8.78424 16.1765 8.47836C15.8641 8.17247 15.4405 8.00043 14.9987 8H13.3322C12.8904 8.00043 12.4668 8.17247 12.1544 8.47836C11.8419 8.78424 11.6662 9.19899 11.6658 9.63158V12.0789C11.6662 12.5115 11.8419 12.9263 12.1544 13.2322C12.4668 13.5381 12.8904 13.7101 13.3322 13.7105ZM13.3322 9.63158H14.9987V12.0789H13.3322V9.63158ZM13.3322 21.0526H14.9987C15.4405 21.0522 15.8641 20.8802 16.1765 20.5743C16.489 20.2684 16.6647 19.8536 16.6651 19.4211V16.9737C16.6647 16.5411 16.489 16.1263 16.1765 15.8205C15.8641 15.5146 15.4405 15.3425 14.9987 15.3421H13.3322C12.8904 15.3425 12.4668 15.5146 12.1544 15.8205C11.8419 16.1263 11.6662 16.5411 11.6658 16.9737V19.4211C11.6662 19.8536 11.8419 20.2684 12.1544 20.5743C12.4668 20.8802 12.8904 21.0522 13.3322 21.0526ZM13.3322 16.9737H14.9987V19.4211H13.3322V16.9737ZM13.3322 28.3947H14.9987C15.4405 28.3943 15.8641 28.2223 16.1765 27.9164C16.489 27.6105 16.6647 27.1957 16.6651 26.7632V24.3158C16.6647 23.8832 16.489 23.4685 16.1765 23.1626C15.8641 22.8567 15.4405 22.6846 14.9987 22.6842H13.3322C12.8904 22.6846 12.4668 22.8567 12.1544 23.1626C11.8419 23.4685 11.6662 23.8832 11.6658 24.3158V26.7632C11.6662 27.1957 11.8419 27.6105 12.1544 27.9164C12.4668 28.2223 12.8904 28.3943 13.3322 28.3947ZM13.3322 24.3158H14.9987V26.7632H13.3322V24.3158ZM6.66645 13.7105H8.33289C8.77473 13.7101 9.19834 13.5381 9.51076 13.2322C9.82319 12.9263 9.9989 12.5115 9.99934 12.0789V9.63158C9.9989 9.19899 9.82319 8.78424 9.51076 8.47836C9.19834 8.17247 8.77473 8.00043 8.33289 8H6.66645C6.22461 8.00043 5.801 8.17247 5.48858 8.47836C5.17615 8.78424 5.00044 9.19899 5 9.63158V12.0789C5.00044 12.5115 5.17615 12.9263 5.48858 13.2322C5.801 13.5381 6.22461 13.7101 6.66645 13.7105ZM6.66645 9.63158H8.33289V12.0789H6.66645V9.63158ZM6.66645 21.0526H8.33289C8.77473 21.0522 9.19834 20.8802 9.51076 20.5743C9.82319 20.2684 9.9989 19.8536 9.99934 19.4211V16.9737C9.9989 16.5411 9.82319 16.1263 9.51076 15.8205C9.19834 15.5146 8.77473 15.3425 8.33289 15.3421H6.66645C6.22461 15.3425 5.801 15.5146 5.48858 15.8205C5.17615 16.1263 5.00044 16.5411 5 16.9737V19.4211C5.00044 19.8536 5.17615 20.2684 5.48858 20.5743C5.801 20.8802 6.22461 21.0522 6.66645 21.0526ZM6.66645 16.9737H8.33289V19.4211H6.66645V16.9737ZM6.66645 28.3947H8.33289C8.77473 28.3943 9.19834 28.2223 9.51076 27.9164C9.82319 27.6105 9.9989 27.1957 9.99934 26.7632V24.3158C9.9989 23.8832 9.82319 23.4685 9.51076 23.1626C9.19834 22.8567 8.77473 22.6846 8.33289 22.6842H6.66645C6.22461 22.6846 5.801 22.8567 5.48858 23.1626C5.17615 23.4685 5.00044 23.8832 5 24.3158V26.7632C5.00044 27.1957 5.17615 27.6105 5.48858 27.9164C5.801 28.2223 6.22461 28.3943 6.66645 28.3947ZM6.66645 24.3158H8.33289V26.7632H6.66645V24.3158Z" fill="url(#paint1_linear_454_818)"/>
<path d="M49.2864 30.6746L42.6644 26.2739C42.4122 26.1115 42.1188 26.0176 41.8154 26.0022C41.512 25.9869 41.2099 26.0506 40.9412 26.1866C40.6725 26.3227 40.4472 26.526 40.2893 26.7749C40.1314 27.0238 40.0467 27.3092 40.0442 27.6005V29.2847H26.6716C26.2273 29.2861 25.8017 29.4566 25.4884 29.7587C25.175 30.0607 24.9993 30.4697 25 30.8958V33.3222C24.9993 33.7483 25.175 34.1573 25.4884 34.4593C25.8017 34.7614 26.2273 34.9319 26.6716 34.9334L40.0442 34.9406V36.3995C40.0467 36.6908 40.1314 36.9762 40.2893 37.2251C40.4472 37.474 40.6725 37.6773 40.9412 37.8134C41.2099 37.9494 41.512 38.0131 41.8154 37.9978C42.1188 37.9824 42.4122 37.8885 42.6644 37.7261L49.2864 33.3262C49.507 33.1759 49.6869 32.9771 49.8111 32.7464C49.9352 32.5158 50 32.26 50 32.0004C50 31.7408 49.9352 31.485 49.8111 31.2544C49.6869 31.0237 49.507 30.8249 49.2864 30.6746ZM48.3344 32.0084L41.715 36.4003V34.9406C41.7156 34.5145 41.54 34.1055 41.2266 33.8034C40.9132 33.5014 40.4877 33.3309 40.0434 33.3294L26.6707 33.3222V30.8878H40.0434C40.4876 30.8863 40.913 30.716 41.2263 30.4141C41.5397 30.1122 41.7154 29.7034 41.715 29.2774L41.7133 27.5917C41.7133 27.5917 48.3344 31.9924 48.3344 32.0084Z" fill="url(#paint2_linear_454_818)"/>
<path d="M48.3285 40.2839L34.9561 40.2766V38.5997C34.9535 38.3084 34.8687 38.0232 34.7108 37.7744C34.5528 37.5256 34.3275 37.3224 34.0588 37.1864C33.7902 37.0505 33.4882 36.9869 33.1848 37.0023C32.8815 37.0177 32.5882 37.1115 32.336 37.2739L25.7142 41.6738C25.4934 41.824 25.3133 42.0228 25.1891 42.2535C25.0648 42.4841 25 42.74 25 42.9996C25 43.2592 25.0648 43.5151 25.1891 43.7457C25.3133 43.9764 25.4934 44.1752 25.7142 44.3254L32.336 48.7261C32.5882 48.8885 32.8816 48.9824 33.185 48.9978C33.4884 49.0131 33.7905 48.9494 34.0592 48.8134C34.3279 48.6773 34.5532 48.474 34.7111 48.2251C34.869 47.9762 34.9537 47.6908 34.9561 47.3995V45.9326H48.3285C48.7727 45.9311 49.1983 45.7606 49.5117 45.4585C49.825 45.1565 50.0007 44.7475 50 44.3214V41.895C50.0007 41.4689 49.825 41.0599 49.5117 40.7579C49.1983 40.4558 48.7727 40.2853 48.3285 40.2839ZM48.3285 44.3294H34.9561C34.512 44.3309 34.0866 44.5013 33.7732 44.8032C33.4599 45.1051 33.2841 45.5138 33.2846 45.9398L33.2879 47.4083L26.6636 42.994L33.2846 38.5997V40.2766C33.2839 40.7028 33.4595 41.1117 33.7729 41.4138C34.0863 41.7158 34.5118 41.8863 34.9561 41.8878L48.3285 41.895V44.3294Z" fill="url(#paint3_linear_454_818)"/>
<defs>
<linearGradient id="paint0_linear_454_818" x1="19" y1="1" x2="19" y2="43" gradientUnits="userSpaceOnUse">
<stop stop-color="#3C9CD7"/>
<stop offset="1" stop-color="#205271"/>
</linearGradient>
<linearGradient id="paint1_linear_454_818" x1="20" y1="8" x2="20" y2="39" gradientUnits="userSpaceOnUse">
<stop stop-color="#3C9CD7"/>
<stop offset="1" stop-color="#205271"/>
</linearGradient>
<linearGradient id="paint2_linear_454_818" x1="37.5" y1="26" x2="37.5" y2="38" gradientUnits="userSpaceOnUse">
<stop stop-color="#3C9CD7"/>
<stop offset="1" stop-color="#205271"/>
</linearGradient>
<linearGradient id="paint3_linear_454_818" x1="37.5" y1="37" x2="37.5" y2="49" gradientUnits="userSpaceOnUse">
<stop stop-color="#3C9CD7"/>
<stop offset="1" stop-color="#205271"/>
</linearGradient>
</defs>
</svg>
