<svg width="50" height="50" viewBox="0 0 50 50" fill="none" xmlns="http://www.w3.org/2000/svg">
<path d="M27 34C28.9222 35.9204 32 39.3678 32 41.7516C32 44.0871 28.8717 43.9996 28.8717 43.9996M21.1182 43.9996C21.1182 43.9996 18 44.0872 18 41.7485C18 39.459 21.0852 35.9546 23 34M5 33L4 32M9 39L7 36M13 46L12 44M28.5361 41.4228C28.8312 42.337 29 43.3275 29 44.2509C29 45.1171 28.3788 45.6059 27.7499 45.8786C26.7969 46.292 26.0086 47.0446 25.5017 47.9968L25.5 48C24.9922 47.0464 24.2022 46.2937 23.2476 45.88C22.6196 45.6078 22 45.1192 22 44.2509C22 41.4376 23.5669 38 25.5 38C25.9343 38 26.3503 38.1736 26.7341 38.4747M19 32C17.3431 32 16 33.3432 16 35C16 36.6568 17.3431 38 19 38M20.4911 32C20.1714 32.437 19.9992 32.9676 20 33.5125C20 34.7423 20.3593 35.2676 21.5 35.5M11 39L16 37M19 39L13 41M10.9266 41.1601C11.5874 40.8307 12.4328 41.026 12.8145 41.596C13.1962 42.166 12.9699 42.895 12.3091 43.2243L11.0733 43.84C10.9272 43.9129 10.7668 43.9622 10.6001 43.9852C10.0511 44.0607 9.48014 43.8441 9.18552 43.404C8.80378 42.834 9.03004 42.1049 9.69095 41.7757M43.622 41C45.0047 40.5198 46 39.1764 46 37.5943C46 35.6092 44.433 34 42.5 34C40.567 34 39 35.6092 39 37.5943C39 38.0901 39.0977 38.5625 39.2744 38.9921M30 32C32.2092 32 34 33.3432 34 35C34 36.6568 32.7092 38 30.5 38M30.502 32C30.8262 32.4377 31.0009 32.9691 31 33.5149C31 34.7366 30.1425 35.7569 29 36M39 39L34 37M31.5 40L37 42M40.8848 40.9368C41.1717 40.2548 40.9043 39.4447 40.2876 39.1274C39.6709 38.8101 38.9384 39.1058 38.6516 39.7879L38.1152 41.0632C38.0516 41.214 38.0136 41.3763 38.003 41.5423C37.9684 42.0891 38.2363 42.6276 38.7124 42.8726C39.329 43.1899 40.0616 42.8942 40.3483 42.2121M12 13L18 20M5.37588 14.5C4.82547 12.5631 4.83817 10.9512 5.3763 8.88189C5.60752 7.99293 6.66037 7.70087 7.27381 8.35571L10 11.2659M5.36233 21C2.89581 19.6497 1.18809 17.0851 1.00215 14.1049C0.952487 13.3086 1.77298 12.7558 2.48076 13.1086L18 20.8442M8.35962 26.9821C5.41805 27.1904 2.54797 25.5681 1.12725 22.7025C0.73442 21.9101 1.30064 20.966 2.14757 21.0009L18 21.6561M14.1058 30.3197C11.6082 31.4791 8.66234 31.1678 6.3695 29.3002C5.80748 28.8424 5.90352 27.8843 6.54254 27.5734L18 22M17.4952 33.1411C16.3427 33.8988 14.9621 34.2231 12.7345 33.8358C12.0332 33.6826 11.7606 32.8325 12.2433 32.3039L18 26M45.6264 14C46.1789 12.1681 46.1427 10.6575 45.6264 8.81537C45.3968 7.99349 44.3513 7.72347 43.7422 8.32879L32 20M48.6929 15.9544C48.858 15.3583 48.9602 14.7455 48.9979 14.1268C49.0475 13.3147 48.2271 12.7509 47.5193 13.1107L32 21M45 21C45.7685 20.498 46.448 19.8185 47 19M42.5 27C45.4432 27.209 47.4512 25.5685 48.8727 22.7025C49.2657 21.9101 48.6993 20.966 47.852 21.0009L32 21.6559M35.9016 30.3207C38.397 31.4788 41.3401 31.1672 43.6308 29.301C44.1923 28.8435 44.0964 27.8856 43.4579 27.575L32 22M32.6236 33.2026C33.8297 33.9537 35.23 34.2066 37.2666 33.8218C37.967 33.669 38.239 32.8215 37.757 32.2944L32 26M20 10L21.1651 9.57685C22.7704 8.99369 23.419 7.36147 22.7221 6M17.4218 10L17.0298 8.34997C16.8659 7.65995 17.3991 7 18.1205 7H19.8795C20.6008 7 21.1341 7.65995 20.9702 8.34997L20.5782 10M19 7V6M26 18V15.3365M26 15.3365C26 12.3892 23.4597 10 20.3261 10H18.8931C17.0061 10 15.6247 11.6725 16.0912 13.3922H18.4486C20.3266 13.3922 21.6015 15.1877 20.8819 16.8192L20.3667 17.9875M26 15.3365C26 12.3892 27.5403 10 30.6739 10H32.1069C33.9939 10 35.3753 11.6725 34.9088 13.3923H32.5514C30.6734 13.3923 29.3985 15.1877 30.1181 16.8193L30.6388 18M29 10L28.223 9.57685C27.1526 8.99369 26.7207 7.36147 27.1854 6M32.5782 10L32.9702 8.34997C33.1341 7.65995 32.6009 7 31.8795 7H30.1205C29.3992 7 28.8659 7.65995 29.0298 8.34997L29.4218 10M31 7V6M21 23.4758V21H29V29.0582C28.2553 29.0553 27.5188 29.2198 26.8404 29.5406C26.1621 29.8614 25.558 30.3309 25.0691 30.9172L25 31L24.9309 30.9172C24.442 30.3309 23.8379 29.8614 23.1595 29.5406C22.4812 29.2198 21.7447 29.0553 21 29.0582V26.87M25 3V2M7.97472 34.6849C7.8007 33.5943 6.77553 32.8513 5.68485 33.0253C4.59428 33.1993 3.85125 34.2245 4.02528 35.3151C4.1992 36.4057 5.22447 37.1487 6.31504 36.9748C7.40572 36.8007 8.14875 35.7756 7.97472 34.6849ZM9.6002 41.9852C9.05105 42.0607 8.48025 41.8441 8.18552 41.404C7.80378 40.834 8.03004 40.105 8.69095 39.7757L9.92673 39.1601C10.5874 38.8307 11.4327 39.026 11.8145 39.596C12.1962 40.166 11.97 40.8951 11.3091 41.2243L10.0734 41.84C9.92728 41.9129 9.7669 41.9622 9.6002 41.9852ZM40.003 42.5424C39.9684 43.0891 40.2363 43.6277 40.7124 43.8726C41.3291 44.1899 42.0615 43.8942 42.3483 43.2122L42.8848 41.9368C43.1717 41.2548 42.9043 40.4447 42.2876 40.1275C41.6709 39.8101 40.9384 40.1058 40.6516 40.7879L40.1153 42.0633C40.0516 42.214 40.0136 42.3764 40.003 42.5424ZM27.282 6H22.718L22.1769 5.04453C21.6994 4.20188 22.236 3.15717 23.2192 3.01519C23.4391 2.98341 23.6637 3.00166 23.875 3.06848C24.6059 3.29971 25.3941 3.29971 26.125 3.06848C26.3363 3.00166 26.5609 2.98341 26.7808 3.01519C27.764 3.15717 28.3006 4.20188 27.8232 5.04453L27.282 6ZM30.5584 32.0487C28.8706 32.0447 27.2497 32.7243 26.0485 33.9393L25 35L23.9514 33.9393C22.7502 32.7243 21.1293 32.0447 19.4415 32.0487C18.6459 32.0505 18 31.39 18 30.5747V19.474C18 18.6599 18.6439 18 19.4383 18H30.5616C31.3561 18 32 18.6599 32 19.474V30.5747C32 31.39 31.354 32.0505 30.5584 32.0487Z" stroke="url(#paint0_linear_454_826)" stroke-width="1.5" stroke-miterlimit="10" stroke-linecap="round" stroke-linejoin="round"/>
<defs>
<linearGradient id="paint0_linear_454_826" x1="25" y1="2" x2="25" y2="48" gradientUnits="userSpaceOnUse">
<stop stop-color="#3C9CD7"/>
<stop offset="1" stop-color="#205271"/>
</linearGradient>
</defs>
</svg>
