<svg width="50" height="50" viewBox="0 0 50 50" fill="none" xmlns="http://www.w3.org/2000/svg">
<path d="M38.0775 10.5282V9.69947C38.0759 9.06361 37.8225 8.45427 37.3729 8.00464C36.9233 7.55502 36.3139 7.30168 35.6781 7.3C35.0419 7.30069 34.432 7.55372 33.9822 8.00355C33.5323 8.45339 33.2793 9.0633 33.2786 9.69947V10.4893H30.823V9.69947C30.823 9.06374 30.5707 8.45399 30.1215 8.00411C29.6724 7.55423 29.063 7.30099 28.4273 7.3C27.7911 7.30079 27.1813 7.55385 26.7315 8.00366C26.2817 8.45348 26.0286 9.06333 26.0278 9.69947V10.4893H23.5722V9.69947C23.5722 9.38461 23.5102 9.07284 23.3897 8.78195C23.2692 8.49106 23.0926 8.22675 22.87 8.00411C22.6473 7.78147 22.383 7.60487 22.0921 7.48438C21.8012 7.36389 21.4895 7.30187 21.1746 7.30187C20.8597 7.30187 20.548 7.36389 20.2571 7.48438C19.9662 7.60487 19.7019 7.78147 19.4792 8.00411C19.2566 8.22675 19.08 8.49106 18.9595 8.78195C18.839 9.07284 18.777 9.38461 18.777 9.69947V10.4893H16.3214V9.69947C16.3197 9.06361 16.0664 8.45427 15.6167 8.00464C15.1671 7.55502 14.5578 7.30168 13.9219 7.3C13.2858 7.30079 12.6759 7.55385 12.2261 8.00366C11.7763 8.45348 11.5233 9.06333 11.5225 9.69947V10.5282C10.3585 10.6718 9.2871 11.2355 8.50954 12.1134C7.73199 12.9913 7.30186 14.123 7.3 15.2957V37.4936C7.30149 38.7679 7.80835 39.9895 8.70941 40.8906C9.61046 41.7916 10.8321 42.2985 12.1064 42.3H37.4936C38.7679 42.2985 39.9895 41.7916 40.8906 40.8906C41.7916 39.9895 42.2985 38.7679 42.3 37.4936V15.2957C42.2981 14.123 41.868 12.9913 41.0905 12.1134C40.3129 11.2355 39.2415 10.6718 38.0775 10.5282ZM34.5888 9.69947C34.5892 9.41069 34.7041 9.13385 34.9083 8.92965C35.1125 8.72545 35.3893 8.61056 35.6781 8.61016C35.9664 8.61193 36.2425 8.72726 36.4464 8.93116C36.6503 9.13507 36.7656 9.41111 36.7674 9.69947V12.5893C36.7674 12.8782 36.6526 13.1553 36.4483 13.3596C36.244 13.5638 35.967 13.6786 35.6781 13.6786C35.3892 13.6786 35.1121 13.5638 34.9078 13.3596C34.7035 13.1553 34.5888 12.8782 34.5888 12.5893V9.69947ZM27.338 9.69947C27.3383 9.41066 27.4531 9.13376 27.6573 8.92954C27.8616 8.72532 28.1385 8.61046 28.4273 8.61016C28.7156 8.61105 28.9917 8.72623 29.1952 8.93042C29.3987 9.13462 29.5129 9.41118 29.5128 9.69947V12.5893C29.5128 12.8777 29.3983 13.1543 29.1943 13.3582C28.9904 13.5622 28.7138 13.6767 28.4254 13.6767C28.137 13.6767 27.8604 13.5622 27.6565 13.3582C27.4525 13.1543 27.338 12.8777 27.338 12.5893V9.69947ZM20.0872 9.69947C20.0872 9.41106 20.2017 9.13447 20.4057 8.93053C20.6096 8.7266 20.8862 8.61203 21.1746 8.61203C21.463 8.61203 21.7396 8.7266 21.9435 8.93053C22.1475 9.13447 22.262 9.41106 22.262 9.69947V12.5893C22.262 12.8777 22.1475 13.1543 21.9435 13.3582C21.7396 13.5622 21.463 13.6767 21.1746 13.6767C20.8862 13.6767 20.6096 13.5622 20.4057 13.3582C20.2017 13.1543 20.0872 12.8777 20.0872 12.5893V9.69947ZM12.8326 9.69947C12.8329 9.41066 12.9478 9.13376 13.152 8.92954C13.3562 8.72532 13.6331 8.61046 13.9219 8.61016C14.2103 8.61193 14.4863 8.72726 14.6902 8.93116C14.8941 9.13507 15.0095 9.41111 15.0112 9.69947V12.5893C15.0112 12.8782 14.8965 13.1553 14.6922 13.3596C14.4879 13.5638 14.2108 13.6786 13.9219 13.6786C13.633 13.6786 13.356 13.5638 13.1517 13.3596C12.9474 13.1553 12.8326 12.8782 12.8326 12.5893V9.69947ZM11.5225 11.8522V12.5893C11.5225 13.2257 11.7753 13.836 12.2252 14.286C12.6752 14.736 13.2855 14.9888 13.9219 14.9888C14.5583 14.9888 15.1686 14.736 15.6186 14.286C16.0686 13.836 16.3214 13.2257 16.3214 12.5893V11.7995H18.777V12.5893C18.777 13.2252 19.0296 13.835 19.4792 14.2847C19.9289 14.7343 20.5387 14.9869 21.1746 14.9869C21.8105 14.9869 22.4203 14.7343 22.87 14.2847C23.3196 13.835 23.5722 13.2252 23.5722 12.5893V11.7995H26.0278V12.5893C26.0278 13.2252 26.2804 13.835 26.73 14.2847C27.1797 14.7343 27.7895 14.9869 28.4254 14.9869C29.0613 14.9869 29.6711 14.7343 30.1208 14.2847C30.5704 13.835 30.823 13.2252 30.823 12.5893V11.7995H33.2786V12.5893C33.2786 13.2257 33.5314 13.836 33.9814 14.286C34.4314 14.736 35.0417 14.9888 35.6781 14.9888C36.3145 14.9888 36.9248 14.736 37.3748 14.286C37.8247 13.836 38.0775 13.2257 38.0775 12.5893V11.8522C38.8911 11.9907 39.6296 12.4122 40.1625 13.0424C40.6954 13.6726 40.9885 14.4708 40.9898 15.2961V17.2677H8.61016V15.2957C8.61162 14.4705 8.90469 13.6723 9.43759 13.0422C9.97048 12.4122 10.7089 11.9907 11.5225 11.8522ZM37.4936 40.9898H12.1064C11.1795 40.9888 10.2908 40.62 9.63539 39.9646C8.97995 39.3092 8.61125 38.4205 8.61016 37.4936V18.5786H40.9898V37.4936C40.9888 38.4205 40.62 39.3092 39.9646 39.9646C39.3092 40.62 38.4205 40.9888 37.4936 40.9898Z" fill="url(#paint0_linear_454_828)"/>
<path d="M16.7328 22.3H14.0571C13.5913 22.3006 13.1447 22.4821 12.8153 22.8046C12.4859 23.1271 12.3006 23.5644 12.3 24.0206V26.6407C12.3006 27.0968 12.4859 27.5341 12.8153 27.8567C13.1447 28.1792 13.5913 28.3607 14.0571 28.3613H16.7328C17.1986 28.3607 17.6452 28.1792 17.9746 27.8567C18.304 27.5341 18.4893 27.0968 18.4899 26.6407V24.0206C18.4893 23.5644 18.304 23.1271 17.9746 22.8046C17.6452 22.4821 17.1986 22.3006 16.7328 22.3ZM17.1645 26.6407C17.1644 26.7528 17.1189 26.8603 17.038 26.9395C16.957 27.0188 16.8473 27.0633 16.7328 27.0634H14.0571C13.9426 27.0633 13.8329 27.0188 13.7519 26.9395C13.671 26.8603 13.6255 26.7528 13.6254 26.6407V24.0206C13.6255 23.9085 13.671 23.801 13.7519 23.7218C13.8329 23.6425 13.9426 23.5979 14.0571 23.5978H16.7328C16.8473 23.5979 16.957 23.6425 17.038 23.7218C17.1189 23.801 17.1644 23.9085 17.1645 24.0206V26.6407ZM26.5213 22.3H23.8456C23.3797 22.3006 22.9332 22.4821 22.6038 22.8046C22.2744 23.1271 22.0891 23.5644 22.0885 24.0206V26.6407C22.0891 27.0968 22.2744 27.5341 22.6038 27.8567C22.9332 28.1792 23.3797 28.3607 23.8456 28.3613H26.5213C26.9871 28.3607 27.4337 28.1792 27.7631 27.8567C28.0925 27.5341 28.2778 27.0968 28.2784 26.6407V24.0206C28.2778 23.5644 28.0925 23.1271 27.7631 22.8046C27.4337 22.4821 26.9871 22.3006 26.5213 22.3ZM26.953 26.6407C26.9529 26.7528 26.9074 26.8603 26.8265 26.9395C26.7455 27.0188 26.6358 27.0633 26.5213 27.0634H23.8456C23.7311 27.0633 23.6214 27.0188 23.5404 26.9395C23.4595 26.8603 23.414 26.7528 23.4139 26.6407V24.0206C23.414 23.9085 23.4595 23.801 23.5404 23.7218C23.6214 23.6425 23.7311 23.5979 23.8456 23.5978H26.5213C26.6358 23.5979 26.7455 23.6425 26.8265 23.7218C26.9074 23.801 26.9529 23.9085 26.953 24.0206V26.6407ZM37.1687 23.1877L34.196 26.0971L32.7737 24.7043C32.6487 24.5862 32.4813 24.5208 32.3075 24.5223C32.1338 24.5238 31.9676 24.5921 31.8447 24.7124C31.7219 24.8328 31.6522 24.9955 31.6508 25.1657C31.6493 25.3358 31.7161 25.4997 31.8368 25.6221L33.7276 27.4735C33.7891 27.5338 33.8622 27.5817 33.9426 27.6143C34.023 27.647 34.1092 27.6638 34.1962 27.6638C34.2833 27.6638 34.3694 27.647 34.4499 27.6143C34.5303 27.5817 34.6033 27.5338 34.6648 27.4735L38.1059 24.104C38.1674 24.0437 38.2162 23.9722 38.2495 23.8935C38.2829 23.8147 38.3 23.7303 38.3 23.6451C38.3 23.5599 38.2829 23.4755 38.2495 23.3968C38.2162 23.318 38.1674 23.2465 38.1059 23.1862C38.0444 23.126 37.9713 23.0782 37.8909 23.0456C37.8105 23.0129 37.7243 22.9962 37.6373 22.9962C37.5502 22.9962 37.4641 23.0129 37.3837 23.0456C37.3033 23.0782 37.2302 23.126 37.1687 23.1862V23.1877ZM16.7328 31.2387H14.0571C13.5913 31.2393 13.1447 31.4208 12.8153 31.7433C12.4859 32.0659 12.3006 32.5032 12.3 32.9593V35.5794C12.3006 36.0356 12.4859 36.4729 12.8153 36.7954C13.1447 37.118 13.5913 37.2994 14.0571 37.3H16.7328C17.1986 37.2994 17.6452 37.118 17.9746 36.7954C18.304 36.4729 18.4893 36.0356 18.4899 35.5794V32.9593C18.4893 32.5032 18.304 32.0659 17.9746 31.7433C17.6452 31.4208 17.1986 31.2393 16.7328 31.2387ZM17.1645 35.5794C17.1644 35.6915 17.1189 35.799 17.038 35.8782C16.957 35.9575 16.8473 36.0021 16.7328 36.0022H14.0571C13.9426 36.0021 13.8329 35.9575 13.7519 35.8782C13.671 35.799 13.6255 35.6915 13.6254 35.5794V32.9593C13.6255 32.8472 13.671 32.7398 13.7519 32.6605C13.8329 32.5812 13.9426 32.5367 14.0571 32.5366H16.7328C16.8473 32.5367 16.957 32.5812 17.038 32.6605C17.1189 32.7398 17.1644 32.8472 17.1645 32.9593V35.5794ZM26.5213 31.2387H23.8456C23.3797 31.2393 22.9332 31.4208 22.6038 31.7433C22.2744 32.0659 22.0891 32.5032 22.0885 32.9593V35.5794C22.0891 36.0356 22.2744 36.4729 22.6038 36.7954C22.9332 37.118 23.3797 37.2994 23.8456 37.3H26.5213C26.9871 37.2994 27.4337 37.118 27.7631 36.7954C28.0925 36.4729 28.2778 36.0356 28.2784 35.5794V32.9593C28.2778 32.5032 28.0925 32.0659 27.7631 31.7433C27.4337 31.4208 26.9871 31.2393 26.5213 31.2387ZM26.953 35.5794C26.9529 35.6915 26.9074 35.799 26.8265 35.8782C26.7455 35.9575 26.6358 36.0021 26.5213 36.0022H23.8456C23.7311 36.0021 23.6214 35.9575 23.5404 35.8782C23.4595 35.799 23.414 35.6915 23.4139 35.5794V32.9593C23.414 32.8472 23.4595 32.7398 23.5404 32.6605C23.6214 32.5812 23.7311 32.5367 23.8456 32.5366H26.5213C26.6358 32.5367 26.7455 32.5812 26.8265 32.6605C26.9074 32.7398 26.9529 32.8472 26.953 32.9593V35.5794ZM36.3098 31.2387H33.6341C33.1682 31.2393 32.7217 31.4208 32.3923 31.7433C32.0629 32.0659 31.8776 32.5032 31.877 32.9593V35.5794C31.8776 36.0356 32.0629 36.4729 32.3923 36.7954C32.7217 37.118 33.1682 37.2994 33.6341 37.3H36.3098C36.7756 37.2994 37.2222 37.118 37.5516 36.7954C37.881 36.4729 38.0663 36.0356 38.0669 35.5794V32.9593C38.0663 32.5032 37.881 32.0659 37.5516 31.7433C37.2222 31.4208 36.7756 31.2393 36.3098 31.2387ZM36.7415 35.5794C36.7414 35.6915 36.6959 35.799 36.615 35.8782C36.534 35.9575 36.4243 36.0021 36.3098 36.0022H33.6341C33.5196 36.0021 33.4099 35.9575 33.3289 35.8782C33.248 35.799 33.2025 35.6915 33.2024 35.5794V32.9593C33.2025 32.8472 33.248 32.7398 33.3289 32.6605C33.4099 32.5812 33.5196 32.5367 33.6341 32.5366H36.3098C36.4243 32.5367 36.534 32.5812 36.615 32.6605C36.6959 32.7398 36.7414 32.8472 36.7415 32.9593V35.5794Z" fill="url(#paint1_linear_454_828)"/>
<path fill-rule="evenodd" clip-rule="evenodd" d="M38.0775 9.69947V10.5282C39.2415 10.6718 40.3129 11.2355 41.0905 12.1134C41.868 12.9913 42.2981 14.123 42.3 15.2957V37.4936C42.2985 38.7679 41.7916 39.9895 40.8906 40.8906C39.9895 41.7916 38.7679 42.2985 37.4936 42.3H12.1064C10.8321 42.2985 9.61046 41.7916 8.70941 40.8906C7.80835 39.9895 7.30149 38.7679 7.3 37.4936V15.2957C7.30186 14.123 7.73199 12.9913 8.50954 12.1134C9.2871 11.2355 10.3585 10.6718 11.5225 10.5282V9.69947C11.5233 9.06333 11.7763 8.45348 12.2261 8.00366C12.6759 7.55385 13.2858 7.30079 13.9219 7.3C14.5578 7.30168 15.1671 7.55502 15.6167 8.00464C16.0664 8.45427 16.3197 9.06361 16.3214 9.69947V10.4893H18.777V9.69947C18.777 9.38461 18.839 9.07284 18.9595 8.78195C19.08 8.49106 19.2566 8.22675 19.4792 8.00411C19.7019 7.78147 19.9662 7.60487 20.2571 7.48438C20.548 7.36389 20.8597 7.30187 21.1746 7.30187C21.4895 7.30187 21.8012 7.36389 22.0921 7.48438C22.383 7.60487 22.6473 7.78147 22.87 8.00411C23.0926 8.22675 23.2692 8.49106 23.3897 8.78195C23.5102 9.07284 23.5722 9.38461 23.5722 9.69947V10.4893H26.0278V9.69947C26.0286 9.06333 26.2817 8.45348 26.7315 8.00366C27.1813 7.55385 27.7911 7.30079 28.4273 7.3C29.063 7.30099 29.6724 7.55423 30.1215 8.00411C30.5707 8.45399 30.823 9.06374 30.823 9.69947V10.4893H33.2786V9.69947C33.2793 9.0633 33.5323 8.45339 33.9822 8.00355C34.432 7.55372 35.0419 7.30069 35.6781 7.3C36.3139 7.30168 36.9233 7.55502 37.3729 8.00464C37.8225 8.45427 38.0759 9.06361 38.0775 9.69947ZM32.9786 10.1893V9.69947C32.9794 8.98385 33.264 8.29744 33.77 7.79142C34.2761 7.2854 34.9621 7.00078 35.6777 7L35.6789 7C36.394 7.00189 37.0793 7.28682 37.585 7.79251C38.0907 8.2982 38.3757 8.98352 38.3775 9.69867V10.2699C39.5117 10.4702 40.548 11.0484 41.315 11.9145C42.1411 12.8471 42.598 14.0494 42.6 15.2952V37.4936C42.5984 38.8473 42.06 40.1455 41.1027 41.1027C40.1455 42.06 38.8477 42.5984 37.4939 42.6H12.1064C10.7527 42.5984 9.45451 42.06 8.49728 41.1027C7.54004 40.1455 7.00158 38.8477 7 37.4939L7 15.2957C7.00198 14.0499 7.45893 12.8471 8.28496 11.9145C9.05202 11.0484 10.0883 10.4702 11.2225 10.2699V9.69947C11.2234 8.9839 11.508 8.29752 12.014 7.79153C12.52 7.28555 13.206 7.00089 13.9216 7L13.9227 7C14.6379 7.00189 15.3232 7.28682 15.8289 7.79251C16.3346 8.2982 16.6195 8.98352 16.6214 9.69867L16.6214 10.1893H18.477V9.69947C18.477 9.34521 18.5468 8.99443 18.6823 8.66714C18.8179 8.33985 19.0166 8.04247 19.2671 7.79198C19.5176 7.54149 19.815 7.34278 20.1423 7.20722C20.4696 7.07165 20.8203 7.00187 21.1746 7.00187C21.5289 7.00187 21.8796 7.07165 22.2069 7.20722C22.5342 7.34278 22.8316 7.54148 23.0821 7.79198C23.3326 8.04247 23.5313 8.33985 23.6669 8.66714C23.8024 8.99443 23.8722 9.34521 23.8722 9.69947V10.1893H25.7278V9.69947C25.7287 8.9839 26.0134 8.29752 26.5193 7.79153C27.0253 7.28555 27.7113 7.00089 28.4269 7C29.1421 7.00112 29.8285 7.28602 30.3338 7.79214C30.8392 8.29827 31.123 8.98425 31.123 9.69947V10.1893H32.9786ZM29.5128 9.69947C29.5129 9.41118 29.3987 9.13462 29.1952 8.93042C28.9917 8.72623 28.7156 8.61105 28.4273 8.61016C28.1385 8.61046 27.8616 8.72532 27.6573 8.92954C27.4531 9.13376 27.3383 9.41066 27.338 9.69947V12.5893C27.338 12.8777 27.4525 13.1543 27.6565 13.3582C27.8604 13.5622 28.137 13.6767 28.4254 13.6767C28.7138 13.6767 28.9904 13.5622 29.1943 13.3582C29.3983 13.1543 29.5128 12.8777 29.5128 12.5893V9.69947ZM27.638 9.69978V12.5893C27.638 12.7981 27.7209 12.9984 27.8686 13.1461C28.0163 13.2938 28.2166 13.3767 28.4254 13.3767C28.6342 13.3767 28.8345 13.2938 28.9822 13.1461C29.1299 12.9984 29.2128 12.7981 29.2128 12.5893V9.69947C29.2129 9.4906 29.1302 9.29013 28.9827 9.14219C28.8354 8.9944 28.6356 8.91097 28.427 8.91016C28.2178 8.91054 28.0174 8.99378 27.8695 9.14167C27.7214 9.28971 27.6382 9.49042 27.638 9.69978ZM16.7332 22C17.2765 22.0007 17.7985 22.2123 18.1845 22.5902C18.5707 22.9684 18.7892 23.4825 18.7899 24.0202V26.6407C18.7892 27.1783 18.5707 27.6928 18.1845 28.071C17.7985 28.449 17.2765 28.6606 16.7332 28.6613H14.0571C13.5138 28.6606 12.9914 28.449 12.6054 28.071C12.2192 27.6928 12.0007 27.1787 12 26.6411L12 24.0206C12.0007 23.4829 12.2192 22.9684 12.6054 22.5902C12.9914 22.2123 13.5134 22.0007 14.0567 22H16.7332ZM26.5217 22C27.0649 22.0007 27.587 22.2123 27.973 22.5902C28.3592 22.9684 28.5777 23.4825 28.5784 24.0202V26.6407C28.5777 27.1783 28.3592 27.6928 27.973 28.071C27.587 28.449 27.0649 28.6606 26.5217 28.6613H23.8456C23.3023 28.6606 22.7799 28.449 22.3939 28.071C22.0077 27.6928 21.7892 27.1787 21.7885 26.6411V24.0206C21.7892 23.4829 22.0077 22.9684 22.3939 22.5902C22.7799 22.2123 23.3019 22.0007 23.8452 22H26.5217ZM32.7737 24.7043L34.196 26.0971L37.1687 23.1877V23.1862C37.2302 23.126 37.3033 23.0782 37.3837 23.0456C37.4641 23.0129 37.5502 22.9962 37.6373 22.9962C37.7243 22.9962 37.8105 23.0129 37.8909 23.0456C37.9713 23.0782 38.0444 23.126 38.1059 23.1862C38.1674 23.2465 38.2162 23.318 38.2495 23.3968C38.2829 23.4755 38.3 23.5599 38.3 23.6451C38.3 23.7303 38.2829 23.8147 38.2495 23.8935C38.2162 23.9722 38.1674 24.0437 38.1059 24.104L34.6648 27.4735C34.6033 27.5338 34.5303 27.5817 34.4499 27.6143C34.3694 27.647 34.2833 27.6638 34.1962 27.6638C34.1092 27.6638 34.023 27.647 33.9426 27.6143C33.8622 27.5817 33.7891 27.5338 33.7276 27.4735L31.8368 25.6221C31.7161 25.4997 31.6493 25.3358 31.6508 25.1657C31.6522 24.9955 31.7219 24.8328 31.8447 24.7124C31.9676 24.5921 32.1338 24.5238 32.3075 24.5223C32.4813 24.5208 32.6487 24.5862 32.7737 24.7043ZM33.5176 27.6878L31.6233 25.8328C31.4472 25.6543 31.3486 25.4139 31.3508 25.1631C31.3529 24.9122 31.4557 24.6736 31.6348 24.4981C31.8137 24.3229 32.0545 24.2245 32.3049 24.2223C32.5553 24.2201 32.7978 24.3143 32.9798 24.4863L32.9836 24.49L34.1961 25.6773L36.8687 23.0616V23.0601L36.9588 22.9719C37.0484 22.8841 37.1546 22.8147 37.2709 22.7676C37.3872 22.7204 37.5117 22.6962 37.6373 22.6962C37.7628 22.6962 37.8873 22.7204 38.0036 22.7676C38.12 22.8147 38.2261 22.8841 38.3158 22.9719C38.4055 23.0597 38.477 23.1643 38.5258 23.2799C38.5747 23.3955 38.6 23.5196 38.6 23.6451C38.6 23.7706 38.5747 23.8947 38.5258 24.0103C38.477 24.1259 38.4055 24.2305 38.3158 24.3183L34.8749 27.6878C34.8748 27.6878 34.8749 27.6877 34.8749 27.6878C34.7852 27.7756 34.679 27.8451 34.5627 27.8923C34.4463 27.9395 34.3218 27.9638 34.1962 27.9638C34.0706 27.9638 33.9461 27.9395 33.8297 27.8923C33.7134 27.8451 33.6072 27.7756 33.5176 27.6878C33.5176 27.6878 33.5175 27.6877 33.5176 27.6878ZM16.7332 30.9387C17.2765 30.9394 17.7985 31.151 18.1845 31.529C18.5707 31.9072 18.7892 32.4213 18.7899 32.9589V35.5794C18.7892 36.1171 18.5707 36.6316 18.1845 37.0098C17.7985 37.3877 17.2765 37.5993 16.7332 37.6H14.0571C13.5138 37.5993 12.9914 37.3877 12.6054 37.0098C12.2192 36.6316 12.0007 36.1175 12 35.5798L12 32.9593C12.0007 32.4217 12.2192 31.9072 12.6054 31.529C12.9914 31.151 13.5134 30.9394 14.0567 30.9387H16.7332ZM26.5217 30.9387C27.0649 30.9394 27.587 31.151 27.973 31.529C28.3592 31.9072 28.5777 32.4213 28.5784 32.9589V35.5794C28.5777 36.1171 28.3592 36.6316 27.973 37.0098C27.587 37.3877 27.0649 37.5993 26.5217 37.6H23.8456C23.3023 37.5993 22.7799 37.3877 22.3939 37.0098C22.0077 36.6316 21.7892 36.1175 21.7885 35.5798V32.9593C21.7892 32.4217 22.0077 31.9072 22.3939 31.529C22.7799 31.151 23.3019 30.9394 23.8452 30.9387H26.5217ZM36.3102 30.9387C36.8534 30.9394 37.3755 31.151 37.7615 31.529C38.1477 31.9072 38.3662 32.4213 38.3669 32.9589V35.5794C38.3662 36.1171 38.1477 36.6316 37.7615 37.0098C37.3755 37.3877 36.8534 37.5993 36.3102 37.6H33.6341C33.0908 37.5993 32.5684 37.3877 32.1824 37.0098C31.7962 36.6316 31.5777 36.1175 31.577 35.5798V32.9593C31.5777 32.4217 31.7962 31.9072 32.1824 31.529C32.5684 31.151 33.0904 30.9394 33.6337 30.9387H36.3102ZM35.1204 9.14178C34.9724 9.28982 34.8891 9.49052 34.8888 9.69988V12.5893C34.8888 12.7986 34.9719 12.9994 35.12 13.1474C35.268 13.2955 35.4687 13.3786 35.6781 13.3786C35.8874 13.3786 36.0882 13.2955 36.2362 13.1474C36.3842 12.9994 36.4674 12.7986 36.4674 12.5893V9.70045C36.4659 9.49133 36.3821 9.29119 36.2342 9.1433C36.0864 8.99547 35.8864 8.91174 35.6774 8.91016C35.4684 8.91075 35.2682 8.99401 35.1204 9.14178ZM35.6781 8.61016C35.3893 8.61056 35.1125 8.72545 34.9083 8.92965C34.7041 9.13385 34.5892 9.41069 34.5888 9.69947V12.5893C34.5888 12.8782 34.7035 13.1553 34.9078 13.3596C35.1121 13.5638 35.3892 13.6786 35.6781 13.6786C35.967 13.6786 36.244 13.5638 36.4483 13.3596C36.6526 13.1553 36.7674 12.8782 36.7674 12.5893V9.69947C36.7656 9.41111 36.6503 9.13507 36.4464 8.93116C36.2425 8.72726 35.9664 8.61193 35.6781 8.61016ZM20.6178 9.14267C20.4701 9.29034 20.3872 9.49063 20.3872 9.69947V12.5893C20.3872 12.7981 20.4701 12.9984 20.6178 13.1461C20.7655 13.2938 20.9658 13.3767 21.1746 13.3767C21.3834 13.3767 21.5837 13.2938 21.7314 13.1461C21.8791 12.9984 21.962 12.7981 21.962 12.5893V9.69947C21.962 9.49063 21.8791 9.29034 21.7314 9.14267C21.5837 8.99499 21.3834 8.91203 21.1746 8.91203C20.9658 8.91203 20.7655 8.99499 20.6178 9.14267ZM12.8326 9.69947V12.5893C12.8326 12.8782 12.9474 13.1553 13.1517 13.3596C13.356 13.5638 13.633 13.6786 13.9219 13.6786C14.2108 13.6786 14.4879 13.5638 14.6922 13.3596C14.8965 13.1553 15.0112 12.8782 15.0112 12.5893V9.69947C15.0095 9.41111 14.8941 9.13507 14.6902 8.93116C14.4863 8.72726 14.2103 8.61193 13.9219 8.61016C13.6331 8.61046 13.3562 8.72532 13.152 8.92954C12.9478 9.13376 12.8329 9.41066 12.8326 9.69947ZM13.9212 8.91016C14.1302 8.91173 14.3303 8.99546 14.4781 9.1433C14.626 9.29119 14.7097 9.49133 14.7112 9.70045V12.5893C14.7112 12.7986 14.6281 12.9994 14.48 13.1474C14.332 13.2955 14.1313 13.3786 13.9219 13.3786C13.7126 13.3786 13.5118 13.2955 13.3638 13.1474C13.2158 12.9994 13.1326 12.7986 13.1326 12.5893L13.1326 9.69978M13.1326 9.69978C13.1329 9.49054 13.2162 9.28963 13.3641 9.14167C13.5119 8.99389 13.7122 8.91066 13.9212 8.91016M11.5225 11.8522C11.4212 11.8695 11.3211 11.8911 11.2225 11.9169C10.5283 12.0988 9.90416 12.4906 9.43759 13.0422C8.90469 13.6723 8.61162 14.4705 8.61016 15.2957V17.2677H40.9898V15.2961C40.9885 14.4708 40.6954 13.6726 40.1625 13.0424C39.6959 12.4906 39.0718 12.0988 38.3775 11.9169C38.2789 11.8911 38.1788 11.8695 38.0775 11.8522V12.5893C38.0775 13.2257 37.8247 13.836 37.3748 14.286C36.9248 14.736 36.3145 14.9888 35.6781 14.9888C35.0417 14.9888 34.4314 14.736 33.9814 14.286C33.5314 13.836 33.2786 13.2257 33.2786 12.5893V11.7995H30.823V12.5893C30.823 13.2252 30.5704 13.835 30.1208 14.2847C29.6711 14.7343 29.0613 14.9869 28.4254 14.9869C27.7895 14.9869 27.1797 14.7343 26.73 14.2847C26.2804 13.835 26.0278 13.2252 26.0278 12.5893V11.7995H23.5722V12.5893C23.5722 13.2252 23.3196 13.835 22.87 14.2847C22.4203 14.7343 21.8105 14.9869 21.1746 14.9869C20.5387 14.9869 19.9289 14.7343 19.4792 14.2847C19.0296 13.835 18.777 13.2252 18.777 12.5893V11.7995H16.3214V12.5893C16.3214 13.2257 16.0686 13.836 15.6186 14.286C15.1686 14.736 14.5583 14.9888 13.9219 14.9888C13.2855 14.9888 12.6752 14.736 12.2252 14.286C11.7753 13.836 11.5225 13.2257 11.5225 12.5893V11.8522ZM11.2225 12.2281C10.6183 12.4024 10.0761 12.7518 9.66665 13.236C9.17949 13.812 8.91156 14.5416 8.91016 15.296V16.9677H40.6898V15.2966C40.6886 14.5421 40.4207 13.8123 39.9335 13.2361C39.524 12.7519 38.9817 12.4024 38.3775 12.2281V12.5893C38.3775 13.3052 38.0931 13.9919 37.5869 14.4981C37.0806 15.0044 36.394 15.2888 35.6781 15.2888C34.9621 15.2888 34.2755 15.0044 33.7693 14.4981C33.263 13.9919 32.9786 13.3052 32.9786 12.5893V12.0995H31.123V12.5893C31.123 13.3048 30.8388 13.9909 30.3329 14.4968C29.827 15.0027 29.1408 15.2869 28.4254 15.2869C27.71 15.2869 27.0238 15.0027 26.5179 14.4968C26.012 13.9909 25.7278 13.3048 25.7278 12.5893V12.0995H23.8722V12.5893C23.8722 13.3048 23.588 13.9909 23.0821 14.4968C22.5762 15.0027 21.89 15.2869 21.1746 15.2869C20.4592 15.2869 19.773 15.0027 19.2671 14.4968C18.7612 13.9909 18.477 13.3048 18.477 12.5893V12.0995H16.6214V12.5893C16.6214 13.3052 16.337 13.9919 15.8307 14.4981C15.3245 15.0044 14.6379 15.2888 13.9219 15.2888C13.206 15.2888 12.5194 15.0044 12.0131 14.4981C11.5069 13.9919 11.2225 13.3052 11.2225 12.5893V12.2281ZM12.1068 40.6898H37.4932C38.3407 40.6889 39.1532 40.3517 39.7525 39.7525C40.3517 39.1532 40.6888 38.3407 40.6898 37.4932V18.8786H8.91016V37.4934C8.91121 38.3408 9.24831 39.1533 9.84753 39.7525C10.4468 40.3517 11.2593 40.6889 12.1068 40.6898ZM12.1064 40.9898C11.1795 40.9888 10.2908 40.62 9.63539 39.9646C8.97995 39.3092 8.61125 38.4205 8.61016 37.4936V18.5786H40.9898V37.4936C40.9888 38.4205 40.62 39.3092 39.9646 39.9646C39.3092 40.62 38.4205 40.9888 37.4936 40.9898H12.1064ZM12.3 24.0206C12.3006 23.5644 12.4859 23.1271 12.8153 22.8046C13.1447 22.4821 13.5913 22.3006 14.0571 22.3H16.7328C17.1986 22.3006 17.6452 22.4821 17.9746 22.8046C18.304 23.1271 18.4893 23.5644 18.4899 24.0206V26.6407C18.4893 27.0968 18.304 27.5341 17.9746 27.8567C17.6452 28.1792 17.1986 28.3607 16.7328 28.3613H14.0571C13.5913 28.3607 13.1447 28.1792 12.8153 27.8567C12.4859 27.5341 12.3006 27.0968 12.3 26.6407V24.0206ZM16.8281 26.7252C16.8521 26.7016 16.8645 26.671 16.8645 26.6404V24.0208C16.8645 23.9903 16.8521 23.9597 16.8281 23.9361C16.8038 23.9123 16.7696 23.8979 16.7326 23.8978H14.0573C14.0203 23.8979 13.9861 23.9123 13.9618 23.9361C13.9378 23.9596 13.9255 23.9901 13.9254 24.0206C13.9254 24.0205 13.9254 24.0207 13.9254 24.0206L13.9254 26.6404C13.9254 26.6404 13.9254 26.6405 13.9254 26.6404C13.9255 26.6709 13.9378 26.7017 13.9618 26.7252C13.9861 26.7489 14.0203 26.7634 14.0573 26.7634H16.7326C16.7696 26.7634 16.8038 26.7489 16.8281 26.7252ZM16.7328 27.0634C16.8473 27.0633 16.957 27.0188 17.038 26.9395C17.1189 26.8603 17.1644 26.7528 17.1645 26.6407V24.0206C17.1644 23.9085 17.1189 23.801 17.038 23.7218C16.957 23.6425 16.8473 23.5979 16.7328 23.5978H14.0571C13.9426 23.5979 13.8329 23.6425 13.7519 23.7218C13.671 23.801 13.6255 23.9085 13.6254 24.0206V26.6407C13.6255 26.7528 13.671 26.8603 13.7519 26.9395C13.8329 27.0188 13.9426 27.0633 14.0571 27.0634H16.7328ZM23.8456 22.3C23.3797 22.3006 22.9332 22.4821 22.6038 22.8046C22.2744 23.1271 22.0891 23.5644 22.0885 24.0206V26.6407C22.0891 27.0968 22.2744 27.5341 22.6038 27.8567C22.9332 28.1792 23.3797 28.3607 23.8456 28.3613H26.5213C26.9871 28.3607 27.4337 28.1792 27.7631 27.8567C28.0925 27.5341 28.2778 27.0968 28.2784 26.6407V24.0206C28.2778 23.5644 28.0925 23.1271 27.7631 22.8046C27.4337 22.4821 26.9871 22.3006 26.5213 22.3H23.8456ZM26.6166 26.7252C26.6406 26.7016 26.653 26.671 26.653 26.6404V24.0208C26.653 23.9903 26.6406 23.9597 26.6166 23.9361C26.5923 23.9123 26.5581 23.8979 26.5211 23.8978H23.8458C23.8088 23.8979 23.7746 23.9123 23.7503 23.9361C23.7262 23.9597 23.7139 23.9903 23.7139 24.0208V26.6404C23.7139 26.671 23.7262 26.7016 23.7503 26.7252C23.7746 26.7489 23.8088 26.7634 23.8458 26.7634H26.5211C26.5581 26.7634 26.5923 26.7489 26.6166 26.7252ZM26.5213 27.0634C26.6358 27.0633 26.7455 27.0188 26.8265 26.9395C26.9074 26.8603 26.9529 26.7528 26.953 26.6407V24.0206C26.9529 23.9085 26.9074 23.801 26.8265 23.7218C26.7455 23.6425 26.6358 23.5979 26.5213 23.5978H23.8456C23.7311 23.5979 23.6214 23.6425 23.5404 23.7218C23.4595 23.801 23.414 23.9085 23.4139 24.0206V26.6407C23.414 26.7528 23.4595 26.8603 23.5404 26.9395C23.6214 27.0188 23.7311 27.0633 23.8456 27.0634H26.5213ZM12.3 32.9593C12.3006 32.5032 12.4859 32.0659 12.8153 31.7433C13.1447 31.4208 13.5913 31.2393 14.0571 31.2387H16.7328C17.1986 31.2393 17.6452 31.4208 17.9746 31.7433C18.304 32.0659 18.4893 32.5032 18.4899 32.9593V35.5794C18.4893 36.0356 18.304 36.4729 17.9746 36.7954C17.6452 37.118 17.1986 37.2994 16.7328 37.3H14.0571C13.5913 37.2994 13.1447 37.118 12.8153 36.7954C12.4859 36.4729 12.3006 36.0356 12.3 35.5794V32.9593ZM16.8281 35.6639C16.8521 35.6403 16.8645 35.6097 16.8645 35.5792V32.9596C16.8645 32.929 16.8521 32.8984 16.8281 32.8748C16.8038 32.8511 16.7696 32.8366 16.7326 32.8366H14.0573C14.0203 32.8366 13.9861 32.8511 13.9618 32.8748C13.9378 32.8984 13.9255 32.9289 13.9254 32.9593C13.9254 32.9592 13.9254 32.9594 13.9254 32.9593L13.9254 35.5792C13.9254 35.5791 13.9254 35.5793 13.9254 35.5792C13.9255 35.6097 13.9378 35.6404 13.9618 35.6639C13.9861 35.6877 14.0203 35.7021 14.0573 35.7022H16.7326C16.7696 35.7021 16.8038 35.6877 16.8281 35.6639ZM16.7328 36.0022C16.8473 36.0021 16.957 35.9575 17.038 35.8782C17.1189 35.799 17.1644 35.6915 17.1645 35.5794V32.9593C17.1644 32.8472 17.1189 32.7398 17.038 32.6605C16.957 32.5812 16.8473 32.5367 16.7328 32.5366H14.0571C13.9426 32.5367 13.8329 32.5812 13.7519 32.6605C13.671 32.7398 13.6255 32.8472 13.6254 32.9593V35.5794C13.6255 35.6915 13.671 35.799 13.7519 35.8782C13.8329 35.9575 13.9426 36.0021 14.0571 36.0022H16.7328ZM23.8456 31.2387C23.3797 31.2393 22.9332 31.4208 22.6038 31.7433C22.2744 32.0659 22.0891 32.5032 22.0885 32.9593V35.5794C22.0891 36.0356 22.2744 36.4729 22.6038 36.7954C22.9332 37.118 23.3797 37.2994 23.8456 37.3H26.5213C26.9871 37.2994 27.4337 37.118 27.7631 36.7954C28.0925 36.4729 28.2778 36.0356 28.2784 35.5794V32.9593C28.2778 32.5032 28.0925 32.0659 27.7631 31.7433C27.4337 31.4208 26.9871 31.2393 26.5213 31.2387H23.8456ZM26.6166 35.6639C26.6406 35.6403 26.653 35.6097 26.653 35.5792V32.9596C26.653 32.929 26.6406 32.8984 26.6166 32.8748C26.5923 32.8511 26.5581 32.8366 26.5211 32.8366H23.8458C23.8088 32.8366 23.7746 32.8511 23.7503 32.8748C23.7262 32.8984 23.7139 32.929 23.7139 32.9596V35.5792C23.7139 35.6097 23.7262 35.6403 23.7503 35.6639C23.7746 35.6877 23.8088 35.7021 23.8458 35.7022H26.5211C26.5581 35.7021 26.5923 35.6877 26.6166 35.6639ZM26.5213 36.0022C26.6358 36.0021 26.7455 35.9575 26.8265 35.8782C26.9074 35.799 26.9529 35.6915 26.953 35.5794V32.9593C26.9529 32.8472 26.9074 32.7398 26.8265 32.6605C26.7455 32.5812 26.6358 32.5367 26.5213 32.5366H23.8456C23.7311 32.5367 23.6214 32.5812 23.5404 32.6605C23.4595 32.7398 23.414 32.8472 23.4139 32.9593V35.5794C23.414 35.6915 23.4595 35.799 23.5404 35.8782C23.6214 35.9575 23.7311 36.0021 23.8456 36.0022H26.5213ZM31.877 32.9593C31.8776 32.5032 32.0629 32.0659 32.3923 31.7433C32.7217 31.4208 33.1682 31.2393 33.6341 31.2387H36.3098C36.7756 31.2393 37.2222 31.4208 37.5516 31.7433C37.881 32.0659 38.0663 32.5032 38.0669 32.9593V35.5794C38.0663 36.0356 37.881 36.4729 37.5516 36.7954C37.2222 37.118 36.7756 37.2994 36.3098 37.3H33.6341C33.1682 37.2994 32.7217 37.118 32.3923 36.7954C32.0629 36.4729 31.8776 36.0356 31.877 35.5794V32.9593ZM36.4051 35.6639C36.4291 35.6403 36.4415 35.6097 36.4415 35.5792V32.9596C36.4415 32.929 36.4291 32.8984 36.4051 32.8748C36.3808 32.8511 36.3465 32.8366 36.3096 32.8366H33.6343C33.5973 32.8366 33.5631 32.8511 33.5388 32.8748C33.5147 32.8984 33.5024 32.929 33.5024 32.9596V35.5792C33.5024 35.6097 33.5147 35.6403 33.5388 35.6639C33.5631 35.6877 33.5973 35.7021 33.6343 35.7022H36.3096C36.3465 35.7021 36.3808 35.6877 36.4051 35.6639ZM36.3098 36.0022C36.4243 36.0021 36.534 35.9575 36.615 35.8782C36.6959 35.799 36.7414 35.6915 36.7415 35.5794V32.9593C36.7414 32.8472 36.6959 32.7398 36.615 32.6605C36.534 32.5812 36.4243 32.5367 36.3098 32.5366H33.6341C33.5196 32.5367 33.4099 32.5812 33.3289 32.6605C33.248 32.7398 33.2025 32.8472 33.2024 32.9593V35.5794C33.2025 35.6915 33.248 35.799 33.3289 35.8782C33.4099 35.9575 33.5196 36.0021 33.6341 36.0022H36.3098ZM20.4057 8.93053C20.2017 9.13447 20.0872 9.41106 20.0872 9.69947V12.5893C20.0872 12.8777 20.2017 13.1543 20.4057 13.3582C20.6096 13.5622 20.8862 13.6767 21.1746 13.6767C21.463 13.6767 21.7396 13.5622 21.9435 13.3582C22.1475 13.1543 22.262 12.8777 22.262 12.5893V9.69947C22.262 9.41106 22.1475 9.13447 21.9435 8.93053C21.7396 8.7266 21.463 8.61203 21.1746 8.61203C20.8862 8.61203 20.6096 8.7266 20.4057 8.93053Z" fill="url(#paint2_linear_454_828)"/>
<defs>
<linearGradient id="paint0_linear_454_828" x1="24.8" y1="7" x2="24.8" y2="42.6" gradientUnits="userSpaceOnUse">
<stop stop-color="#3C9CD7"/>
<stop offset="1" stop-color="#205271"/>
</linearGradient>
<linearGradient id="paint1_linear_454_828" x1="24.8" y1="7" x2="24.8" y2="42.6" gradientUnits="userSpaceOnUse">
<stop stop-color="#3C9CD7"/>
<stop offset="1" stop-color="#205271"/>
</linearGradient>
<linearGradient id="paint2_linear_454_828" x1="24.8" y1="7" x2="24.8" y2="42.6" gradientUnits="userSpaceOnUse">
<stop stop-color="#3C9CD7"/>
<stop offset="1" stop-color="#205271"/>
</linearGradient>
</defs>
</svg>
