<svg width="6" height="6" viewBox="0 0 6 6" fill="none" xmlns="http://www.w3.org/2000/svg">
<path d="M1.03193 0.00357583C1.23957 0.0234394 1.4466 0.124991 1.60746 0.285892L5.39389 4.07253C5.55476 4.23343 5.65629 4.4405 5.67615 4.64818C5.69601 4.85587 5.63257 5.04715 5.49979 5.17996C5.367 5.31277 5.17575 5.37622 4.96811 5.35636C4.76047 5.3365 4.55344 5.23494 4.39257 5.07404L0.606147 1.28741C0.445279 1.12651 0.343747 0.919437 0.323888 0.711753C0.304028 0.504069 0.367468 0.312783 0.500251 0.179973C0.633033 0.0471643 0.824283 -0.0162877 1.03193 0.00357583Z" fill="white"/>
<path d="M4.96737 0.0035758C4.75973 0.0234393 4.5527 0.124991 4.39183 0.285892L0.606148 4.07186C0.44528 4.23276 0.343747 4.43983 0.323888 4.64752C0.304028 4.8552 0.367467 5.04649 0.50025 5.1793C0.633033 5.31211 0.824282 5.37556 1.03193 5.35569C1.23957 5.33583 1.4466 5.23428 1.60747 5.07338L5.39315 1.28741C5.55402 1.12651 5.65555 0.919437 5.67541 0.711753C5.69527 0.504069 5.63183 0.312783 5.49905 0.179973C5.36626 0.0471643 5.17501 -0.0162877 4.96737 0.0035758Z" fill="white"/>
</svg>
